<svg xmlns="http://www.w3.org/2000/svg" width="103.925" height="35.278" viewBox="0 0 103.925 35.278">
  <g id="Group_8512" data-name="Group 8512" transform="translate(0.25 0.25)">
    <path id="Path_16154" data-name="Path 16154" d="M200.06,965.9a4.637,4.637,0,0,1-4.571,4.7H101.212a4.637,4.637,0,0,1-4.576-4.7V940.525a4.637,4.637,0,0,1,4.576-4.7h94.277a4.636,4.636,0,0,1,4.571,4.7Z" transform="translate(-96.636 -935.825)" stroke="#fff" stroke-width="0.5"/>
    <g id="Group_7774" data-name="Group 7774" transform="translate(8.7 5.949)">
      <g id="Group_7770" data-name="Group 7770">
        <path id="Path_16155" data-name="Path 16155" d="M150.679,1000.954a15.925,15.925,0,0,1-1.44,2.688c-.935,1.423-2.252,3.2-3.885,3.211-1.452.014-1.824-.944-3.793-.933s-2.38.951-3.831.937c-1.633-.015-2.881-1.616-3.816-3.039-2.615-3.98-2.887-8.651-1.276-11.135a5.786,5.786,0,0,1,4.653-2.8c1.731,0,2.819.949,4.249.949,1.387,0,2.234-.951,4.235-.951a5.647,5.647,0,0,1,4.257,2.248,4.871,4.871,0,0,0,.647,8.823Z" transform="translate(-131.638 -984.697)" fill="#fff"/>
        <g id="Group_7769" data-name="Group 7769" transform="translate(9.179)">
          <path id="Path_16156" data-name="Path 16156" d="M183.681,965.953a4.858,4.858,0,0,0,1.079-3.6,5.248,5.248,0,0,0-3.386,1.822,4.509,4.509,0,0,0-1.107,3.509,4.43,4.43,0,0,0,3.415-1.733Z" transform="translate(-180.237 -962.355)" fill="#fff"/>
        </g>
      </g>
      <g id="Group_7773" data-name="Group 7773" transform="translate(23.259 0.043)">
        <g id="Group_7771" data-name="Group 7771" transform="translate(0.003 9.53)">
          <path id="Path_16157" data-name="Path 16157" d="M258.827,1004.42l-3.745,11.025H256.8l1.118-3.386h3.626l1.15,3.386h1.763l-3.762-11.025Zm.889,1.813c.126.492.263,1.007.438,1.556l1.007,2.923h-2.873l1-2.943c.154-.476.3-1,.432-1.538Z" transform="translate(-255.082 -1004.236)" fill="#fff"/>
          <path id="Path_16158" data-name="Path 16158" d="M312.258,1019.59a3.121,3.121,0,0,0-2.654,1.272l-.067-1.1h-1.526l.009.14c.045.683.064,1.435.064,2.514v8.5h1.668v-3.966a2.929,2.929,0,0,0,2.28.979,3.438,3.438,0,0,0,2.527-1.074,4.557,4.557,0,0,0,1.116-3.208,4.437,4.437,0,0,0-.969-2.929,3.174,3.174,0,0,0-2.448-1.128Zm-.416,1.381c1.487,0,2.153,1.377,2.153,2.746,0,1.76-.849,2.854-2.216,2.854a2.023,2.023,0,0,1-1.965-1.548,2.127,2.127,0,0,1-.059-.54v-1.342a2.512,2.512,0,0,1,.053-.412c.008-.046.017-.092.024-.135a2.112,2.112,0,0,1,2.013-1.631Z" transform="translate(-298.04 -1016.544)" fill="#fff"/>
          <path id="Path_16159" data-name="Path 16159" d="M357.84,1019.59a3.123,3.123,0,0,0-2.654,1.272l-.067-1.1H353.6l.008.14c.045.684.064,1.435.064,2.514v8.5h1.667v-3.966a2.929,2.929,0,0,0,2.28.979,3.444,3.444,0,0,0,2.529-1.074,4.562,4.562,0,0,0,1.116-3.208,4.437,4.437,0,0,0-.97-2.929,3.172,3.172,0,0,0-2.453-1.128Zm-.415,1.381c1.486,0,2.152,1.377,2.152,2.746,0,1.76-.849,2.854-2.216,2.854a2.022,2.022,0,0,1-1.965-1.548,2.128,2.128,0,0,1-.059-.54v-1.342a2.478,2.478,0,0,1,.053-.413c.008-.045.017-.091.024-.134a2.11,2.11,0,0,1,2.011-1.632Z" transform="translate(-335.032 -1016.544)" fill="#fff"/>
          <path id="Path_16160" data-name="Path 16160" d="M416.116,1008.331c-1.556-.6-2.056-1.077-2.056-1.953,0-.738.586-1.482,1.9-1.482a3.79,3.79,0,0,1,1.958.491l.141.092.47-1.392-.092-.055a4.834,4.834,0,0,0-2.429-.549c-2.127,0-3.612,1.256-3.612,3.053,0,1.45.931,2.463,2.929,3.189,1.416.529,1.942,1.071,1.942,2,0,1.052-.813,1.7-2.12,1.7a4.563,4.563,0,0,1-2.4-.682l-.145-.091-.448,1.424.082.055a5.713,5.713,0,0,0,2.819.725c2.866,0,3.883-1.748,3.883-3.244C418.93,1010.069,418.115,1009.127,416.116,1008.331Z" transform="translate(-382.548 -1003.479)" fill="#fff"/>
          <path id="Path_16161" data-name="Path 16161" d="M451.879,1010.44l-1.636.513v1.386h-1.2v1.333h1.2v4.084a3.122,3.122,0,0,0,.578,2.116,2.139,2.139,0,0,0,1.613.633,3.936,3.936,0,0,0,1.29-.2l.091-.033-.08-1.335-.16.049a2.511,2.511,0,0,1-.776.091c-.646,0-.923-.409-.923-1.373v-4.035h2.013v-1.333h-2.013Z" transform="translate(-412.495 -1009.121)" fill="#fff"/>
          <path id="Path_16162" data-name="Path 16162" d="M479.625,1019.59a3.928,3.928,0,0,0-3.964,4.235,3.805,3.805,0,0,0,3.836,4.107h.016a3.935,3.935,0,0,0,3.964-4.25,4.211,4.211,0,0,0-1.063-2.95A3.711,3.711,0,0,0,479.625,1019.59Zm-.049,1.317c1.5,0,2.184,1.464,2.184,2.822,0,1.672-.933,2.886-2.216,2.886h-.016c-1.265,0-2.183-1.19-2.183-2.837,0-1.433.69-2.87,2.231-2.87Z" transform="translate(-434.096 -1016.544)" fill="#fff"/>
          <path id="Path_16163" data-name="Path 16163" d="M526.362,1019.663l-.1-.026a1.6,1.6,0,0,0-.415-.052,2.379,2.379,0,0,0-2.091,1.343l-.049-1.167h-1.5l.01.14c.045.66.063,1.4.063,2.4l-.016,5.449h1.671V1023.5a4.287,4.287,0,0,1,.046-.646,1.843,1.843,0,0,1,1.755-1.681,4.265,4.265,0,0,1,.448.028l.178.018Z" transform="translate(-471.873 -1016.544)" fill="#fff"/>
          <path id="Path_16164" data-name="Path 16164" d="M547.9,1019.5c-2.22,0-3.772,1.775-3.772,4.314a3.729,3.729,0,0,0,3.935,4.027,6.4,6.4,0,0,0,2.64-.507l.1-.045-.32-1.243-.139.056a5.163,5.163,0,0,1-2.089.373,2.319,2.319,0,0,1-2.5-2.419l5.383.016.022-.106a3.7,3.7,0,0,0,.05-.7C551.21,1021.532,550.343,1019.5,547.9,1019.5Zm-.111,1.268a1.648,1.648,0,0,1,1.225.467,2.374,2.374,0,0,1,.575,1.556h-3.8a2.129,2.129,0,0,1,2-2.019Z" transform="translate(-489.662 -1016.476)" fill="#fff"/>
        </g>
        <g id="Group_7772" data-name="Group 7772" transform="translate(0 0)">
          <path id="Path_16165" data-name="Path 16165" d="M255.082,963.989a12.143,12.143,0,0,1,1.6-.108,3.569,3.569,0,0,1,2.348.641,2.288,2.288,0,0,1,.824,1.881,2.641,2.641,0,0,1-.835,2.028,3.87,3.87,0,0,1-2.572.751,11.562,11.562,0,0,1-1.368-.062Zm.757,4.622a5.386,5.386,0,0,0,.757.031c1.6.007,2.471-.805,2.471-2.214.008-1.247-.766-2.013-2.348-2.013a4.736,4.736,0,0,0-.878.069Z" transform="translate(-255.079 -963.636)" fill="#fff"/>
          <path id="Path_16166" data-name="Path 16166" d="M286.059,975.357a1.881,1.881,0,0,1-2-1.927,1.933,1.933,0,0,1,2.065-1.99,1.865,1.865,0,0,1,2,1.922,1.939,1.939,0,0,1-2.064,2Zm.026-.511a1.334,1.334,0,0,0,1.265-1.464,1.273,1.273,0,1,0-1.273,1.464Z" transform="translate(-278.6 -969.77)" fill="#fff"/>
          <path id="Path_16167" data-name="Path 16167" d="M308.674,971.891l.559,1.9c.112.418.223.813.3,1.2h.026c.091-.38.232-.781.366-1.19l.679-1.9h.641l.645,1.873a12.646,12.646,0,0,1,.366,1.224h.026a10.366,10.366,0,0,1,.319-1.215l.593-1.881h.749l-1.342,3.747h-.688l-.641-1.788a12.278,12.278,0,0,1-.366-1.238h-.017a10.275,10.275,0,0,1-.379,1.246l-.671,1.78h-.688l-1.257-3.747Z" transform="translate(-297.944 -970.137)" fill="#fff"/>
          <path id="Path_16168" data-name="Path 16168" d="M343.863,972.539c0-.394-.009-.7-.035-1.014h.671l.043.612h.017a1.577,1.577,0,0,1,1.373-.7,1.425,1.425,0,0,1,1.471,1.594v2.237h-.756v-2.16c0-.6-.25-1.115-.964-1.115a1.08,1.08,0,0,0-1.015.7.916.916,0,0,0-.052.318v2.261h-.757Z" transform="translate(-327.102 -969.771)" fill="#fff"/>
          <path id="Path_16169" data-name="Path 16169" d="M369.346,962.607h.757v5.5h-.757Z" transform="translate(-347.811 -962.602)" fill="#fff"/>
          <path id="Path_16170" data-name="Path 16170" d="M380.427,975.357a1.881,1.881,0,0,1-2-1.927,1.932,1.932,0,0,1,2.065-1.99,1.866,1.866,0,0,1,2,1.922,1.94,1.94,0,0,1-2.065,2Zm.026-.511a1.333,1.333,0,0,0,1.265-1.464,1.273,1.273,0,1,0-1.273,1.464Z" transform="translate(-355.185 -969.77)" fill="#fff"/>
          <path id="Path_16171" data-name="Path 16171" d="M406.617,974.372a5.652,5.652,0,0,0,.06.9H406l-.069-.472H405.9a1.6,1.6,0,0,1-1.273.557,1.135,1.135,0,0,1-1.273-1.076c0-.906.894-1.4,2.5-1.394v-.077c0-.309-.092-.875-.946-.867a2.172,2.172,0,0,0-1.093.275l-.172-.458a2.928,2.928,0,0,1,1.373-.325,1.393,1.393,0,0,1,1.591,1.533Zm-.74-1.014c-.824-.016-1.764.116-1.764.844a.633.633,0,0,0,.706.651,1.05,1.05,0,0,0,1.023-.627.627.627,0,0,0,.035-.217Z" transform="translate(-375.414 -969.769)" fill="#fff"/>
          <path id="Path_16172" data-name="Path 16172" d="M429.392,962.607v4.528c0,.333.009.712.035.967h-.679l-.034-.65H428.7a1.556,1.556,0,0,1-1.41.732,1.786,1.786,0,0,1-1.789-1.9,1.868,1.868,0,0,1,1.866-2.014,1.432,1.432,0,0,1,1.257.565h.017V962.6Zm-.757,3.275a1.137,1.137,0,0,0-.035-.294,1.1,1.1,0,0,0-1.092-.782,1.281,1.281,0,0,0-1.247,1.44,1.243,1.243,0,0,0,1.23,1.393,1.127,1.127,0,0,0,1.109-.813,1.062,1.062,0,0,0,.035-.294Z" transform="translate(-393.38 -962.602)" fill="#fff"/>
          <path id="Path_16173" data-name="Path 16173" d="M462.915,975.357a1.881,1.881,0,0,1-2-1.927,1.933,1.933,0,0,1,2.065-1.99,1.866,1.866,0,0,1,2,1.922,1.94,1.94,0,0,1-2.064,2Zm.026-.511a1.332,1.332,0,0,0,1.264-1.464,1.273,1.273,0,1,0-1.273,1.464Z" transform="translate(-422.129 -969.77)" fill="#fff"/>
          <path id="Path_16174" data-name="Path 16174" d="M487.433,972.539c0-.394-.009-.7-.035-1.014h.671l.043.612h.017a1.577,1.577,0,0,1,1.373-.7,1.425,1.425,0,0,1,1.471,1.594v2.237h-.757v-2.16c0-.6-.249-1.115-.964-1.115a1.081,1.081,0,0,0-1.015.7.922.922,0,0,0-.051.318v2.261h-.757Z" transform="translate(-443.618 -969.771)" fill="#fff"/>
          <path id="Path_16175" data-name="Path 16175" d="M521.472,967.127v.9h1.084v.519h-1.084v2.021c0,.464.146.732.567.732a1.556,1.556,0,0,0,.438-.047l.034.519a2.278,2.278,0,0,1-.671.092,1.147,1.147,0,0,1-.817-.287,1.36,1.36,0,0,1-.292-.984v-2.044h-.641v-.519h.641v-.689Z" transform="translate(-470.145 -966.27)" fill="#fff"/>
          <path id="Path_16176" data-name="Path 16176" d="M537.7,962.607h.757v2.338h.017a1.282,1.282,0,0,1,.542-.48,1.6,1.6,0,0,1,.774-.193,1.424,1.424,0,0,1,1.453,1.6V968.1h-.757v-2.152c0-.611-.25-1.115-.964-1.115a1.088,1.088,0,0,0-1.015.681.75.75,0,0,0-.052.325v2.26H537.7Z" transform="translate(-484.445 -962.602)" fill="#fff"/>
          <path id="Path_16177" data-name="Path 16177" d="M562.174,973.48a1.269,1.269,0,0,0,1.419,1.3,3.157,3.157,0,0,0,1.153-.183l.137.479a3.721,3.721,0,0,1-1.394.24,1.847,1.847,0,0,1-2.047-1.889A1.907,1.907,0,0,1,563.4,971.4a1.64,1.64,0,0,1,1.711,1.765,1.573,1.573,0,0,1-.026.325Zm2.211-.488a1.007,1.007,0,0,0-1.041-1.107,1.179,1.179,0,0,0-1.161,1.108Z" transform="translate(-503.71 -969.737)" fill="#fff"/>
        </g>
      </g>
    </g>
  </g>
</svg>
