<svg xmlns="http://www.w3.org/2000/svg" xmlns:xlink="http://www.w3.org/1999/xlink" width="230" height="170" viewBox="0 0 230 170"><defs><clipPath id="a"><rect width="230" height="170" transform="translate(545 697)" fill="#fff" stroke="#707070" stroke-width="1"/></clipPath></defs><g transform="translate(-545 -697)" clip-path="url(#a)"><ellipse cx="115" cy="22.439" rx="115" ry="22.439" transform="translate(545 821.286)" fill="#d6d6d6"/><g transform="translate(-320 -1402.675)"><g transform="translate(937 2100)"><rect width="83.233" height="146.986" rx="8" fill="#616161"/><rect width="76.149" height="136.36" rx="5" transform="translate(3.542 7.084)" fill="#fff"/><g transform="translate(13.983 28.871)"><path d="M-3185.138-1265.421v-5.271l-.008.006h2.621v-2.64h-2.621l.008.007q0-1.32-.008-2.639h5.278v-2.618h2.626v2.606h2.635v-5.253l-.007.006.935,0,6.968,0v2.622h2.615v-2.616h-2.621v-2.647h-5.269v-5.241h-7.9v2.626h-5.243v5.269h2.608v2.628h-2.617v2.631h-2.631v-2.631h-7.886v-2.628h7.87v-21.069h2.647l-.007-.007v7.886h2.633v-5.238h2.626v5.257h2.646l-.007-.007v2.63h13.158v2.627h2.639v2.647l.007-.006h-2.621v2.64h2.621l-.007-.007v5.273h2.639l-.007-.007v5.259h-2.615v5.279h2.622l-.007-.007v2.631h5.257v2.626h-7.881v5.263h-2.628v-2.624h-5.277l.006.007v-2.631h-2.625v-2.628h5.24v-2.631h-13.139v2.618h-5.279Zm15.791-7.9v-2.623h-2.615v2.616h2.621v2.622h5.246v-2.615Zm-5.273.011h-2.607v2.606h2.607Zm5.285-13.194h2.607v-2.607h-2.607Z" transform="translate(3208.828 1312.802)" fill="#30b55c"/><path d="M-3490.8-1519.548v-18.4h18.4v18.4Zm2.636-15.771v13.138h13.139v-13.138Z" transform="translate(3490.801 1537.949)" fill="#30b55c"/><path d="M-2646.345-1519.4h-18.4v-18.4h18.4Zm-2.625-15.772h-13.138v13.138h13.138Z" transform="translate(2701.607 1537.809)" fill="#30b55c"/><path d="M-3490.667-711.993h18.4v18.4h-18.4Zm15.771,2.637h-13.138v13.138h13.138Z" transform="translate(3490.674 748.851)" fill="#30b55c"/><path d="M-3016.117-1527.307v-5.265h-2.621v-5.253h13.134v5.241h-2.6v2.637h2.606v5.252h-2.613v-2.606h-2.635v-2.631h-2.63v2.619h-2.647Zm2.64-5.285h2.607v-2.607h-2.607Z" transform="translate(3039.804 1537.831)" fill="#30b55c"/><path d="M-3477.491-1007.292v2.631h5.257v2.627h-7.881v5.263h-10.518v-5.238h2.608v2.6h5.278v-7.886l-.008.007h5.271Z" transform="translate(3490.64 1030.973)" fill="#30b55c"/><path d="M-3016.022-476.332v2.631h2.627v2.628h2.625v2.631h-7.864v-7.883h2.618Z" transform="translate(3039.703 523.706)" fill="#30b55c"/><path d="M-3482.887-1063.234h-5.262v2.62h-2.628v-5.233h7.885v2.619Z" transform="translate(3490.779 1086.914)" fill="#30b55c"/><path d="M-2364.474-1058.094h-2.609v-5.245h-2.625v-2.629h5.234Z" transform="translate(2419.737 1087.03)" fill="#30b55c"/><path d="M-3196.126-1063.238v-2.62h5.247v2.614h-5.254Z" transform="translate(3209.282 1086.924)" fill="#30b55c"/><path d="M-2370.129-827.225v-2.62h2.615v2.613h-2.622Z" transform="translate(2420.145 861.444)" fill="#30b55c"/><path d="M-2310.756-711.991h2.6v2.607h-2.6Z" transform="translate(2363.414 748.849)" fill="#30b55c"/><path d="M-2783.126-1181.223v-2.621h2.614v2.614h-2.621Z" transform="translate(2814.713 1199.646)" fill="#30b55c"/><path d="M-3016.048-650.673h-2.619V-653.3h2.619l-.007-.006v2.639Z" transform="translate(3039.736 692.782)" fill="#30b55c"/><path d="M-2370.129-591.225v-2.62h2.615v2.613h-2.622Z" transform="translate(2420.145 635.975)" fill="#30b55c"/><path d="M-2429.129-948.3h2.62v2.626h-2.62l.007.006v-2.639Z" transform="translate(2476.505 974.618)" fill="#30b55c"/><path d="M-2780.16-414.219h-2.6v-2.6h2.6Z" transform="translate(2814.358 466.851)" fill="#30b55c"/><path d="M-2662.075-358.331v2.62h-2.614v-2.613h2.621Z" transform="translate(2701.554 410.97)" fill="#30b55c"/><path d="M-2308.154-355.213h-2.6v-2.6h2.6Z" transform="translate(2363.416 410.479)" fill="#30b55c"/><path d="M-2780.032-886.266h-2.62v-2.615h2.613v2.621Z" transform="translate(2814.253 917.845)" fill="#30b55c"/><path d="M-3364.9-1411.958h-7.869v-7.869h7.869Z" transform="translate(3378.035 1425.098)" fill="#30b55c"/><path d="M-2546.8-1412.08v-7.869h7.868v7.869Z" transform="translate(2588.927 1425.215)" fill="#30b55c"/><path d="M-3372.805-586.075v-7.869h7.869v7.869Z" transform="translate(3378.071 636.069)" fill="#30b55c"/></g><rect width="10.625" height="1.771" rx="0.885" transform="translate(35.418 2.771)" fill="#565656"/></g></g></g></svg>