<svg xmlns="http://www.w3.org/2000/svg" xmlns:xlink="http://www.w3.org/1999/xlink" width="134" height="115" viewBox="0 0 134 115"><defs><clipPath id="a"><rect width="134" height="115" transform="translate(138 1726)" fill="#fff" stroke="#707070" stroke-width="1" opacity="0.33"/></clipPath></defs><g transform="translate(-138 -1726)" clip-path="url(#a)"><g transform="translate(-372.964 -78.3)"><ellipse cx="64.411" cy="12.387" rx="64.411" ry="12.387" transform="translate(513.142 1893.998)" fill="#ececec"/><g transform="translate(547.498 1830.594)"><g fill="#fff" stroke="#ef6188" stroke-width="3"><rect width="60.111" height="75.792" rx="11" stroke="none"/><rect x="1.5" y="1.5" width="57.111" height="72.792" rx="9.5" fill="none"/></g><path d="M0,0H33.516" transform="translate(11.761 48.35)" fill="none" stroke="#ef6188" stroke-width="3"/><path d="M0,0H33.516" transform="translate(11.761 56.19)" fill="none" stroke="#ef6188" stroke-width="3"/><g transform="translate(11.759 12.403)"><g transform="translate(3.533 3.498)"><ellipse cx="7.593" cy="7.593" rx="7.593" ry="7.593" fill="#e01b41"/><path d="M1345.874,323.53l3.758,2.674-1.419-4.349,3.741-2.776h-4.634l-1.446-4.275-1.4,4.275h-4.678l3.741,2.776-1.419,4.349Z" transform="translate(-1338.281 -313.164)" fill="#ffe62e"/></g><path d="M1199.539,191.647a13.477,13.477,0,0,0-1.142-1.919,11.129,11.129,0,0,1,8.739-17.5c.126,0,.249-.006.372-.006a11.128,11.128,0,0,1,8.929,17.78,8.037,8.037,0,0,0-.8,1.34l-8.124,8.987Zm7.974-17.412a9.106,9.106,0,1,0,9.112,9.112A9.122,9.122,0,0,0,1207.513,174.235Z" transform="translate(-1196.386 -172.218)" fill="#ef6188"/></g></g></g></g></svg>