<svg xmlns="http://www.w3.org/2000/svg" xmlns:xlink="http://www.w3.org/1999/xlink" width="134" height="115" viewBox="0 0 134 115"><defs><clipPath id="a"><rect width="134" height="115" transform="translate(893 2341)" fill="#fff" stroke="#707070" stroke-width="1"/></clipPath></defs><g transform="translate(-893 -2341)" clip-path="url(#a)"><ellipse cx="64.411" cy="12.387" rx="64.411" ry="12.387" transform="translate(895.589 2429.918)" fill="#ececec"/><g transform="translate(925.818 2359.438)"><g transform="translate(0 0)"><path d="M584.5-69.369a33.211,33.211,0,0,1-21.544-11.278c-7.28-8.283-9.921-18.859-10.847-24.427-.778-4.661-2.394-14.36-.9-21.676a16.005,16.005,0,0,1,8.581-11.071c10.322-5.075,24.793-5.132,25.4-5.132.563,0,13.806.063,23.958,4.48l.185.079c.428.186.854.374,1.266.576a15.993,15.993,0,0,1,8.574,11.068c1.493,7.319-.122,17.017-.9,21.676-1.266,7.6-7.348,32.646-32.389,35.7l-.695.085Z" transform="translate(-550.598 142.952)" fill="#9ac0ff"/><g transform="translate(5.502 5.512)"><path d="M608.629-130.609a10.252,10.252,0,0,0-5.535-7.131c-.394-.193-.8-.367-1.213-.544L561.97-89.118a27.81,27.81,0,0,0,18.07,9.443c21.811-2.663,26.631-25.108,27.646-31.2C608.428-115.32,609.915-124.312,608.629-130.609Z" transform="translate(-550.947 142.32)" fill="#fff"/><path d="M583.427-141.08s-13.736,0-23.052,4.58a10.259,10.259,0,0,0-5.537,7.131c-1.284,6.3.2,15.289.944,19.739.634,3.8,2.753,13.993,9.574,21.752l39.911-49.166C596.017-141.068,583.427-141.08,583.427-141.08Z" transform="translate(-554.333 141.08)" fill="#fff"/><g transform="translate(3.874 20.261) rotate(-31)"><circle cx="13.767" cy="13.767" r="13.767" transform="translate(4.763 4.781)" fill="#448aff"/><g transform="translate(0 0)"><g transform="translate(15.192 0)"><rect width="6.676" height="3.188" rx="1.021" fill="#448aff"/><rect width="6.676" height="2.142" rx="0.686" transform="translate(4.409 1.443) rotate(90)" fill="#448aff"/></g><g transform="translate(15.192 28.942)"><rect width="6.676" height="3.188" rx="1.021" transform="translate(6.676 8.119) rotate(-180)" fill="#448aff"/><rect width="6.676" height="2.142" rx="0.686" transform="translate(2.267 6.676) rotate(-90)" fill="#448aff"/></g><g transform="translate(28.942 15.192)"><rect width="6.676" height="3.188" rx="1.021" transform="translate(8.119 0) rotate(90)" fill="#448aff"/><rect width="6.676" height="2.142" rx="0.686" transform="translate(6.676 4.409) rotate(180)" fill="#448aff"/></g><g transform="translate(0 15.192)"><rect width="6.676" height="3.188" rx="1.021" transform="translate(0 6.676) rotate(-90)" fill="#448aff"/><rect width="6.676" height="2.142" rx="0.686" transform="translate(1.443 2.267)" fill="#448aff"/></g></g><g transform="translate(3.067 3.067)"><g transform="translate(22.068 22.068)"><rect width="6.676" height="3.188" rx="1.021" transform="translate(8.858 4.138) rotate(135)" fill="#448aff"/><rect width="6.676" height="2.142" rx="0.686" transform="translate(4.721 6.235) rotate(-135)" fill="#448aff"/></g><g transform="translate(0 0)"><rect width="6.676" height="3.188" rx="1.021" transform="translate(0 4.721) rotate(-45)" fill="#448aff"/><rect width="6.676" height="2.142" rx="0.686" transform="translate(4.138 2.623) rotate(45)" fill="#448aff"/></g></g><g transform="translate(3.067 33.993) rotate(-90)"><g transform="translate(22.068 22.068)"><rect width="6.676" height="3.188" rx="1.021" transform="translate(8.858 4.138) rotate(135)" fill="#448aff"/><rect width="6.676" height="2.142" rx="0.686" transform="translate(4.721 6.235) rotate(-135)" fill="#448aff"/></g><g transform="translate(0 0)"><rect width="6.676" height="3.188" rx="1.021" transform="translate(0 4.721) rotate(-45)" fill="#448aff"/><rect width="6.676" height="2.142" rx="0.686" transform="translate(4.138 2.623) rotate(45)" fill="#448aff"/></g></g></g><g transform="translate(19.465 18.698)"><circle cx="2.591" cy="2.591" r="2.591" transform="translate(0)" fill="#fff"/><circle cx="1.728" cy="1.728" r="1.728" transform="translate(10.276 14.543)" fill="#fff"/><circle cx="1.728" cy="1.728" r="1.728" transform="translate(16.207 6.821)" fill="#fff"/></g></g><path d="M.449,2.176,5.239,0V72.089H0Z" transform="translate(55.024 2.704) rotate(38.578)" fill="#9ac0ff"/></g></g></g></svg>