<svg xmlns="http://www.w3.org/2000/svg" xmlns:xlink="http://www.w3.org/1999/xlink" width="134" height="115" viewBox="0 0 134 115"><defs><clipPath id="a"><rect width="134" height="115" transform="translate(129 2305)" fill="#fff" stroke="#707070" stroke-width="1" opacity="0.34"/></clipPath></defs><g transform="translate(-129 -2305)" clip-path="url(#a)"><g transform="translate(-381.142 224.119)"><ellipse cx="64.411" cy="12.387" rx="64.411" ry="12.387" transform="translate(513.142 2171.107)" fill="#ececec"/><g transform="translate(-43.708 -15.267)"><g transform="translate(581.609 2096.46)"><g transform="translate(7.613 0)"><path d="M539.778,346.834a7.894,7.894,0,1,1-7.894-7.9A7.893,7.893,0,0,1,539.778,346.834Z" transform="translate(-488.452 -338.938)" fill="#2bb59b"/><path d="M521.081,383.149a7.556,7.556,0,0,1-10.391,2.493h0A7.555,7.555,0,0,1,508.2,375.25l10.756-17.542a7.555,7.555,0,0,1,10.39-2.49h0a7.555,7.555,0,0,1,2.491,10.391Z" transform="translate(-488.96 -338.483)" fill="#2bb59b"/><path d="M513.908,395.9a4.041,4.041,0,0,1-3.876,4.184h0a4.039,4.039,0,0,1-3.875-4.184V381.023a4.038,4.038,0,0,1,3.875-4.184h0a4.04,4.04,0,0,1,3.876,4.184Z" transform="translate(-488.987 -337.801)" fill="#2bb59b"/><path d="M493.222,397.665a4.038,4.038,0,0,1-3.71-4.331h0a4.04,4.04,0,0,1,4.6-3.367l14.782,1.712a4.042,4.042,0,0,1,3.711,4.331h0a4.039,4.039,0,0,1-4.6,3.366Z" transform="translate(-489.487 -337.407)" fill="#2bb59b"/><path d="M508.449,349.991c-2.131-.653-4.308.2-4.865,1.916h0c-.553,1.706.723,3.62,2.854,4.274l13.723,4.2c2.131.654,4.31-.2,4.865-1.913h0c.553-1.71-.723-3.626-2.854-4.278Z" transform="translate(-489.068 -338.613)" fill="#2bb59b"/><path d="M503.947,367.076a3.39,3.39,0,0,0,3.553,3.209h0a3.388,3.388,0,0,0,2.925-3.786l-1.108-12.441a3.39,3.39,0,0,0-3.55-3.208h0a3.384,3.384,0,0,0-2.928,3.783Z" transform="translate(-489.088 -338.581)" fill="#2bb59b"/><path d="M531.949,378.023c.786,2.087,2.794,3.286,4.487,2.68h0c1.692-.606,2.427-2.786,1.642-4.873l-5.06-13.431c-.786-2.084-2.8-3.285-4.487-2.681h0c-1.693.608-2.429,2.788-1.641,4.874Z" transform="translate(-488.373 -338.318)" fill="#2bb59b"/><path d="M548.058,370.972a3.387,3.387,0,0,0,.37-4.772h0a3.389,3.389,0,0,0-4.787,0l-9.17,8.481a3.388,3.388,0,0,0-.368,4.77h0a3.386,3.386,0,0,0,4.785,0Z" transform="translate(-488.172 -338.149)" fill="#2bb59b"/><path d="M530.3,392.807a4.037,4.037,0,0,1,.568,5.674h0a4.04,4.04,0,0,1-5.7.133l-11.148-9.857a4.039,4.039,0,0,1-.568-5.675h0a4.036,4.036,0,0,1,5.7-.131Z" transform="translate(-488.796 -337.65)" fill="#2bb59b"/><path d="M524.59,413.369a4.037,4.037,0,0,1-5.092,2.567h0a4.04,4.04,0,0,1-2.169-5.275l5.2-13.942a4.038,4.038,0,0,1,5.093-2.568h0a4.041,4.041,0,0,1,2.168,5.276Z" transform="translate(-488.662 -337.287)" fill="#2bb59b"/></g><g transform="translate(0 65.497)"><g transform="translate(0 3.694)"><path d="M2511.351,450.425a2.26,2.26,0,0,1-1.837-.656,2.663,2.663,0,0,1,.4-3.941l24.461-15.743s3.016-.869,4.157.076l14.394,12.857,21.765-20.724s3-1.154,4.258-.236a2.24,2.24,0,0,1,.283,3.554l-23.881,22.743a3.291,3.291,0,0,1-2.166.859,3.363,3.363,0,0,1-2.234-.73l-14.637-13.06-22.938,14.346A3.355,3.355,0,0,1,2511.351,450.425Z" transform="translate(-2508.813 -421.703)" fill="#448aff"/></g><g transform="translate(60.752)"><path d="M2574.018,417.057l-13.277,1.3,12.328,11.854Z" transform="translate(-2560.741 -417.057)" fill="#448aff"/></g></g></g></g></g></g></svg>