<svg xmlns="http://www.w3.org/2000/svg" xmlns:xlink="http://www.w3.org/1999/xlink" width="134" height="115" viewBox="0 0 134 115"><defs><clipPath id="a"><rect width="134" height="115" transform="translate(117 2493)" fill="#fff" stroke="#707070" stroke-width="1"/></clipPath></defs><g transform="translate(-117 -2493)" clip-path="url(#a)"><g transform="translate(-1141.558 410.504)"><ellipse cx="64.411" cy="12.387" rx="64.411" ry="12.387" transform="translate(1261.558 2171.107)" fill="#ececec"/><g transform="translate(1285.254 2105.496)"><path d="M115.283,389.008,86.33,373.679a2.322,2.322,0,0,0-2.388.138L61.8,389.146a2.3,2.3,0,0,0,1.307,4.191H114.2a2.3,2.3,0,0,0,1.081-4.329Z" transform="translate(-48.162 -319.726)" fill="#4caf50"/><path d="M69.54,193.615a2.306,2.306,0,0,0-2.2-1.615H24.817a2.3,2.3,0,0,0-2.245,1.8l-7.734,34.8a2.3,2.3,0,0,0,2.245,2.8,2.278,2.278,0,0,0,1.311-.409l50.253-34.8A2.3,2.3,0,0,0,69.54,193.615Z" transform="translate(-8.75 -164.396)" fill="#2196f3"/><path d="M300.758,227.545a2.3,2.3,0,0,0-3.556-1.394l-22.143,15.33a2.3,2.3,0,0,0,.235,3.92l28.948,15.33a2.307,2.307,0,0,0,1.077.271,2.269,2.269,0,0,0,1.394-.474,2.3,2.3,0,0,0,.856-2.328Z" transform="translate(-230.757 -193.288)" fill="#4caf50"/><path d="M20.667,0a16.12,16.12,0,0,0-16.1,16.1c0,8.263,12.919,22.9,14.391,24.54a2.3,2.3,0,0,0,3.423,0C23.851,39,36.77,24.365,36.77,16.1A16.12,16.12,0,0,0,20.667,0Z" fill="#b8b8b8"/><circle cx="6.901" cy="6.901" r="6.901" transform="translate(13.766 9.201)" fill="#fafafa"/></g></g></g></svg>