<svg xmlns="http://www.w3.org/2000/svg" xmlns:xlink="http://www.w3.org/1999/xlink" width="134" height="115" viewBox="0 0 134 115"><defs><clipPath id="a"><rect width="134" height="115" transform="translate(84 2048)" fill="#fff" stroke="#707070" stroke-width="1"/></clipPath><clipPath id="c"><use xlink:href="#b"/></clipPath></defs><g transform="translate(-84 -2048)" clip-path="url(#a)"><g transform="translate(-427.054 -30.389)"><g transform="translate(568.006 2155.318)"><circle cx="1.976" cy="1.976" r="1.976" transform="translate(-0.302 0.295)" fill="#f8b123"/><circle cx="1.976" cy="1.976" r="1.976" transform="translate(8.236 0.295)" fill="#f8b123"/><circle cx="1.976" cy="1.976" r="1.976" transform="translate(18.093 0.295)" fill="#f8b123"/><circle cx="1.976" cy="1.976" r="1.976" transform="translate(49.343 0.295)" fill="#f8b123"/><circle cx="1.976" cy="1.976" r="1.976" transform="translate(27.949 0.295)" fill="#f8b123"/><circle cx="1.976" cy="1.976" r="1.976" transform="translate(58.199 0.295)" fill="#f8b123"/></g><ellipse cx="64.411" cy="12.387" rx="64.411" ry="12.387" transform="translate(513.143 2166.72)" fill="#ececec"/><path d="M-462.874,367.73l-1.1-.8a.231.231,0,0,0-.06-.031l-.194-.069a.232.232,0,0,0-.3.166l-.684-.815.594-.45-8.087-10.514-1.9-9.753a6.6,6.6,0,0,0,.821-1.935h0l.015-.063a13.556,13.556,0,0,0,1.613-.5l-.232-2.483,1.673,3.891.591-.224.8,2.129h0a1.808,1.808,0,0,0,1.711,1.316,1.808,1.808,0,0,0,1.836-1.779,1.808,1.808,0,0,0-1.779-1.836,1.8,1.8,0,0,0-.484.059l-.238-.59.932-.353-5.878-11.945-.044-.067-.029-.307c-.229-2.378-1.142-4.352-2.47-4.8v-.652s-.226-.039-.583-.07v-1.37a4.273,4.273,0,0,0,.746-.845l1.157-.332s1.616-4.017-1.9-5.926a3.448,3.448,0,0,0-4.308.506,1.308,1.308,0,0,1-.037-.4c-1.035.271-.836,1.1-.836,1.1a1.809,1.809,0,0,1-.843-.138,1.275,1.275,0,0,0,1.129,1.6,3.144,3.144,0,0,0-.183,1.01h0v.893l-.6.882a.249.249,0,0,0,.231.37l.368.07v.254a2.063,2.063,0,0,0,2.063,2.063c.037,0,.07-.008.106-.011v.546a2.707,2.707,0,0,0-1.279.883l1,1.239c0,.039.006.078.011.117a8.518,8.518,0,0,0-2.2,4.388l-.214,3.1-.3.642-7.113,6.579.452.441-1.593,1.624h0a1.808,1.808,0,0,0-.472,2.106,1.808,1.808,0,0,0,2.387.915,1.808,1.808,0,0,0,.915-2.387,1.8,1.8,0,0,0-.258-.414l.434-.465.713.7,4.447-4.132-.182,2.639c.221.061.441.115.66.164h0l-2.367,11.782-1.672,14.053.788.208-.152.949a.233.233,0,0,0-.242-.087l-2.291.928a13.058,13.058,0,0,0-2.659.639.356.356,0,0,0,.257.535l6.966.98a.484.484,0,0,0,.549-.437l.118-1.353a.243.243,0,0,0,0-.068l-.041-.2a.232.232,0,0,0-.3-.175l.168-1.084.865.228,2.547-14.4.806-1.969.1.439a12.957,12.957,0,0,0,1.519,4.131l9.116,9.369.619-.469.8.966a.232.232,0,0,0-.236.164l-.383,2.441a13.079,13.079,0,0,0-.82,2.609.357.357,0,0,0,.591.055l4.424-5.469A.483.483,0,0,0-462.874,367.73Z" transform="translate(1018.028 1797.08)" fill="#f8b123"/><g transform="translate(555.354 2118.555)"><g transform="translate(0)" fill="none" stroke="#3c98ca" stroke-width="5"><ellipse cx="29.448" cy="29.448" rx="29.448" ry="29.448" stroke="none"/><ellipse cx="29.448" cy="29.448" rx="26.948" ry="26.948" fill="none"/></g><g transform="translate(47.957 48.253) rotate(45)" fill="none" stroke="#3c98ca" stroke-width="8"><rect id="b" width="13.129" height="5.627" stroke="none"/><path d="M0,1.6267271041870117h13.129143714904785M9.129143714904785,0v5.626727104187012M13.129143714904785,4h-13.129143714904785M4,5.626727104187012v-5.626727104187012" fill="none" clip-path="url(#c)"/></g><g transform="translate(57.905 55.548) rotate(45)" fill="none" stroke="#3c98ca" stroke-width="8"><path d="M0,0H12.191A4.689,4.689,0,0,1,16.88,4.689v0a4.689,4.689,0,0,1-4.689,4.689H0a0,0,0,0,1,0,0V0A0,0,0,0,1,0,0Z" stroke="none"/><path d="M4.689,4h8.019a.172.172,0,0,1,.172.172V5.206a.172.172,0,0,1-.172.172H4.689A.689.689,0,0,1,4,4.689v0A.689.689,0,0,1,4.689,4Z" fill="none"/></g></g></g></g></svg>