<svg xmlns="http://www.w3.org/2000/svg" xmlns:xlink="http://www.w3.org/1999/xlink" width="134" height="115" viewBox="0 0 134 115"><defs><clipPath id="a"><rect width="134" height="115" transform="translate(87 2049)" fill="#fff" stroke="#707070" stroke-width="1" opacity="0.22"/></clipPath></defs><g transform="translate(-87 -2049)" clip-path="url(#a)"><g transform="translate(-1171.322 244.228)"><ellipse cx="64.411" cy="12.387" rx="64.411" ry="12.387" transform="translate(1260.5 1893.998)" fill="#ececec"/><g transform="translate(-5045.484 740.724)"><path d="M352.091,291.79a32.743,32.743,0,0,0-32.738,32.738c0,24.553,32.738,49.271,32.738,49.271s32.738-24.718,32.738-49.271A32.743,32.743,0,0,0,352.091,291.79Zm0,44.429a11.692,11.692,0,1,1,11.693-11.691A11.7,11.7,0,0,1,352.091,336.219Z" transform="translate(6018.305 786.869)" fill="#f8b123"/><ellipse cx="26.349" cy="26.348" rx="26.349" ry="26.348" transform="translate(6344.048 1086.472)" fill="#fff"/><path d="M-5290.562-3463.339l7.059,6.788,14.188-14.875" transform="translate(11650.338 4577.465)" fill="none" stroke="#f8b123" stroke-linecap="round" stroke-width="5"/></g></g></g></svg>