<svg xmlns="http://www.w3.org/2000/svg" xmlns:xlink="http://www.w3.org/1999/xlink" width="134" height="115" viewBox="0 0 134 115"><defs><clipPath id="a"><rect width="134" height="115" transform="translate(166 1888)" fill="#fff" stroke="#707070" stroke-width="1" opacity="0.39"/></clipPath></defs><g transform="translate(-166 -1888)" clip-path="url(#a)"><g transform="translate(-719.649 83)"><ellipse cx="64.411" cy="12.387" rx="64.411" ry="12.387" transform="translate(888.238 1893.998)" fill="#ececec"/><g transform="translate(-707.7 -339.228)"><g transform="translate(1642.281 2173.388)"><path d="M324.766,21.665,309.921,36.51l4.96,4.96,10.8-6.42,4.042-8.425Z" transform="translate(-265.307 -18.694)" fill="#4bbaed"/><rect width="7.014" height="20.994" transform="translate(64.419 7.93) rotate(45)" fill="#19a2e0"/><path d="M391.543.009,388.632,2.92l7.012,7.012h2.6l.307-2.911Z" transform="translate(-333.217 -0.009)" fill="#b7e4f8"/><rect width="9.909" height="4.117" transform="translate(65.338 7.012) rotate(45)" fill="#93d6f4"/><path d="M1.462,19.709l0,0L0,18.25,18.357,0l1.629,1.62,0,0L21.438,3.07,3.082,21.32Z" transform="translate(0 50.905)" fill="#9e9e9e"/><path d="M55.72,311.046,43.974,322.867l4.9,4.933,5.7-2.513,6.042-9.308Z" transform="translate(-35.856 -268.363)" fill="#8ad2f4"/><path d="M79.692,358.813l4.9,4.933L96.34,351.925l-4.9-4.933Z" transform="translate(-66.672 -299.376)" fill="#4bbaed"/><path d="M239.005,76.617,227.112,88.51l7.513,9.182,8.875-4.026,3.853-8.7Z" transform="translate(-193.863 -66.105)" fill="#dbf1fb"/><path d="M281.941,150.162l9.138,7.537,11.926-11.906-8.348-8.347Z" transform="translate(-241.167 -118.585)" fill="#b7e4f8"/><path d="M90.759,163.366,69.084,185.041l8.347,8.347L99.4,176.982l-.3-5.269Z" transform="translate(-57.52 -140.949)" fill="#ffdb2d"/><rect width="11.805" height="30.653" transform="translate(41.586 30.764) rotate(45)" fill="#ffb700"/><path d="M277.724,34.675l-2.911,2.911L287.256,50.03h2.911V47.118Z" transform="translate(-235.018 -29.918)" fill="#b7e4f8"/><g transform="translate(52.24 17.199)"><rect width="17.597" height="4.117" transform="translate(2.911) rotate(45)" fill="#93d6f4"/></g><g transform="translate(18.626 22.406)"><rect width="4.14" height="4.117" transform="translate(8.79 11.695) rotate(-135)" fill="#ffb700"/><rect width="4.14" height="4.117" transform="translate(14.646 5.839) rotate(-135)" fill="#ffb700"/><rect width="4.14" height="4.117" transform="translate(2.928 17.552) rotate(-135)" fill="#ffb700"/></g></g></g></g></g></svg>