<svg xmlns="http://www.w3.org/2000/svg" width="36" height="36" viewBox="0 0 36 36">
  <g id="Group_8058" data-name="Group 8058" transform="translate(-780.075 -18.112)">
    <circle id="Ellipse_1357" data-name="Ellipse 1357" cx="18" cy="18" r="18" transform="translate(780.075 18.112)" fill="#fff"/>
    <g id="Group_7738" data-name="Group 7738" transform="translate(780.793 18.742)">
      <path id="Path_16033" data-name="Path 16033" d="M306.85,441.276l.265-.518a1.735,1.735,0,0,1,.13-.222.368.368,0,0,1,.283-.152.328.328,0,0,1,.172.038.342.342,0,0,1,.187.326.386.386,0,0,1,.211-.122.355.355,0,0,1,.228.036.441.441,0,0,1,.151.129.384.384,0,0,1,.075.181.408.408,0,0,1-.028.207c-.018.045-.068.152-.153.319l-.226.44Zm.349-.151.3.153.088-.171q.078-.153.093-.193a.194.194,0,0,0,.008-.129.15.15,0,0,0-.082-.09.158.158,0,0,0-.114-.017.167.167,0,0,0-.1.075c-.016.025-.056.1-.119.222Zm.515.264.346.177.124-.242a1.3,1.3,0,0,0,.084-.183.172.172,0,0,0-.094-.215.192.192,0,0,0-.113-.022.185.185,0,0,0-.1.052.993.993,0,0,0-.137.222Z" transform="translate(-304.326 -430.85)" fill="#034a9a"/>
      <path id="Path_16034" data-name="Path 16034" d="M312.436,431.969l0,.132-.107.164.01-.252.1-.149.226-.111-.106.165Zm.34,1.056a.926.926,0,0,1-.277-.259.705.705,0,0,1-.094-.223.579.579,0,0,1-.008-.229.808.808,0,0,1,.123-.295.682.682,0,0,1,.447-.323.77.77,0,0,1,.571.139.709.709,0,0,1-.2,1.324.748.748,0,0,1-.562-.136Zm.157-.259a.548.548,0,0,0,.377.108.372.372,0,0,0,.265-.174.367.367,0,0,0,.051-.31.554.554,0,0,0-.258-.3.549.549,0,0,0-.373-.112.407.407,0,0,0-.319.478l0,.013a.551.551,0,0,0,.255.3Zm1.082.4-.234-.152.152-.234.234.152Z" transform="translate(-308.929 -423.547)" fill="#034a9a"/>
      <path id="Path_16035" data-name="Path 16035" d="M320.578,422l-.922-.784-.279.329-.188-.159.75-.881.187.159-.279.328.921.784Z" transform="translate(-314.688 -414.159)" fill="#034a9a"/>
      <path id="Path_16036" data-name="Path 16036" d="M326.116,415.949l-1.021-1.037.21-.206.4.408.41-.4-.4-.409.209-.205,1.021,1.037-.21.206-.447-.454-.41.4.447.453Z" transform="translate(-319.648 -408.775)" fill="#034a9a"/>
      <path id="Path_16037" data-name="Path 16037" d="M333.2,408.051l-.022-.359.2-.162.344.1-.175.141-.183-.043.009.182Zm.236.864a.919.919,0,0,1-.182-.333.678.678,0,0,1-.02-.24.567.567,0,0,1,.065-.22.8.8,0,0,1,.208-.242.681.681,0,0,1,.526-.167.89.89,0,0,1,.7.861.675.675,0,0,1-.274.476.684.684,0,0,1-.526.17.753.753,0,0,1-.491-.3Zm.229-.2a.543.543,0,0,0,.324.22.373.373,0,0,0,.306-.082.368.368,0,0,0,.145-.28.555.555,0,0,0-.15-.366.545.545,0,0,0-.319-.222.407.407,0,0,0-.453.355s0,.008,0,.012a.549.549,0,0,0,.149.362Z" transform="translate(-326.439 -403.262)" fill="#034a9a"/>
      <path id="Path_16038" data-name="Path 16038" d="M341.315,403.742l-.8-1.219.24-.157,1.03.488-.531-.814.229-.149.8,1.219-.246.161-1.011-.474.519.795Z" transform="translate(-332.599 -398.526)" fill="#034a9a"/>
      <path id="Path_16039" data-name="Path 16039" d="M350.81,398.8l-.113-.218.562-.292.268.514a.806.806,0,0,1-.165.263.972.972,0,0,1-.283.224.8.8,0,0,1-.4.1.6.6,0,0,1-.353-.125.877.877,0,0,1-.255-.3.832.832,0,0,1-.1-.4.644.644,0,0,1,.123-.369.757.757,0,0,1,.276-.226.694.694,0,0,1,.428-.094.512.512,0,0,1,.319.189l-.234.182a.309.309,0,0,0-.181-.1.352.352,0,0,0-.216.043.4.4,0,0,0-.216.25.512.512,0,0,0,.066.374.568.568,0,0,0,.281.292.386.386,0,0,0,.328-.025.493.493,0,0,0,.148-.117.671.671,0,0,0,.1-.152l-.086-.164Z" transform="translate(-340.538 -395.146)" fill="#034a9a"/>
      <path id="Path_16040" data-name="Path 16040" d="M361.99,393.755l-.414-1.136-.406.148-.085-.231,1.087-.4.084.231-.4.148.414,1.136Z" transform="translate(-349.871 -390.337)" fill="#034a9a"/>
      <path id="Path_16041" data-name="Path 16041" d="M369.778,392.678l-.417-1.4.282-.084.417,1.395Z" transform="translate(-356.821 -389.547)" fill="#034a9a"/>
      <path id="Path_16042" data-name="Path 16042" d="M373.567,390.629l-.323-1.419.279-.064.8.815-.216-.948.266-.06.323,1.419-.288.066-.782-.8.21.926Z" transform="translate(-360.081 -387.661)" fill="#034a9a"/>
      <path id="Path_16043" data-name="Path 16043" d="M386.269,388.769l-.657-1.4.317-.03.47,1.037.252-1.107.311-.029-.38,1.5Z" transform="translate(-370.468 -386.223)" fill="#034a9a"/>
      <path id="Path_16044" data-name="Path 16044" d="M396.2,386.623l-.319,0-.131-.33-.582.007-.116.333-.312,0,.55-1.462.31,0Zm-.594-1.532-.176,0-.278-.293.313,0Zm.046.962-.207-.538-.189.543Z" transform="translate(-378.133 -384.17)" fill="#034a9a"/>
      <path id="Path_16045" data-name="Path 16045" d="M408.6,388.962l.143-1.2-.429-.051.029-.245,1.149.136-.029.245-.427-.051-.143,1.2Z" transform="translate(-389.533 -386.412)" fill="#034a9a"/>
      <path id="Path_16046" data-name="Path 16046" d="M415.564,390.03l.3-1.424.605.126a1.06,1.06,0,0,1,.323.108.332.332,0,0,1,.137.172.417.417,0,0,1,.015.237.388.388,0,0,1-.149.245.464.464,0,0,1-.31.073.7.7,0,0,1,.129.152,1.77,1.77,0,0,1,.116.266l.116.314-.344-.072-.143-.353a2.022,2.022,0,0,0-.108-.241.217.217,0,0,0-.074-.077.5.5,0,0,0-.142-.046l-.058-.012-.125.594Zm.46-.762.213.045a1.106,1.106,0,0,0,.262.037.157.157,0,0,0,.093-.044.184.184,0,0,0,.052-.1.174.174,0,0,0-.014-.124.18.18,0,0,0-.1-.079q-.033-.012-.209-.048l-.224-.047Z" transform="translate(-395.62 -387.369)" fill="#034a9a"/>
      <path id="Path_16047" data-name="Path 16047" d="M425.369,390.735l.281.087-.235.753a1.692,1.692,0,0,0-.062.235.241.241,0,0,0,.043.164.312.312,0,0,0,.169.109.294.294,0,0,0,.2.008.206.206,0,0,0,.11-.1,1.7,1.7,0,0,0,.086-.233l.239-.768.28.088-.227.729a1.957,1.957,0,0,1-.133.347.412.412,0,0,1-.139.149.446.446,0,0,1-.2.062.74.74,0,0,1-.28-.042.811.811,0,0,1-.288-.14.452.452,0,0,1-.125-.17.4.4,0,0,1-.031-.179,1.746,1.746,0,0,1,.082-.361Z" transform="translate(-403.59 -389.157)" fill="#034a9a"/>
      <path id="Path_16048" data-name="Path 16048" d="M435.043,394.965l.236-.565-.168-.983.318.132.095.663.531-.4.313.13-.819.574-.235.564Z" transform="translate(-411.978 -391.409)" fill="#034a9a"/>
      <path id="Path_16049" data-name="Path 16049" d="M440.45,397.545l.676-1.289.956.5-.114.218-.7-.365-.149.286.647.34-.114.217-.647-.34-.184.35.719.378-.114.217Zm1.238-1.133-.131.014-.173-.091.252-.013.157.082.132.215-.173-.091Zm.145-.025-.156-.082-.149-.262.277.146Z" transform="translate(-416.519 -393.616)" fill="#034a9a"/>
      <path id="Path_16050" data-name="Path 16050" d="M447.759,402.922l.793-1.221.24.155-.029,1.14.529-.815.229.149-.793,1.221-.247-.161.025-1.115-.517.8Z" transform="translate(-422.657 -398.366)" fill="#034a9a"/>
      <path id="Path_16051" data-name="Path 16051" d="M459.512,410.4l.78-.924-.33-.279.159-.188.884.745-.159.189-.329-.278-.779.924Z" transform="translate(-432.526 -404.5)" fill="#034a9a"/>
      <path id="Path_16052" data-name="Path 16052" d="M463.717,415.916l1.033-1.025.207.209-.407.4.406.409.407-.4.207.209-1.033,1.025-.207-.209.452-.448-.406-.409-.452.448Z" transform="translate(-436.058 -409.443)" fill="#034a9a"/>
      <path id="Path_16053" data-name="Path 16053" d="M471.609,423.187a.927.927,0,0,1,.332-.184.685.685,0,0,1,.24-.02.563.563,0,0,1,.22.063.8.8,0,0,1,.242.207.682.682,0,0,1,.17.526.89.89,0,0,1-.858.7.676.676,0,0,1-.477-.272.684.684,0,0,1-.172-.525A.753.753,0,0,1,471.609,423.187Zm.2.229a.544.544,0,0,0-.219.325.391.391,0,0,0,.328.446l.035,0a.693.693,0,0,0,.587-.473.407.407,0,0,0-.357-.451h-.012a.55.55,0,0,0-.362.15Zm.664-.467.36-.023.162.2-.1.344-.142-.175.042-.182-.183.01Z" transform="translate(-442.428 -416.189)" fill="#034a9a"/>
      <path id="Path_16054" data-name="Path 16054" d="M475.985,431.058l1.216-.8.157.239-.485,1.032.812-.534.15.228-1.216.8-.162-.246.471-1.012-.793.521Z" transform="translate(-446.36 -422.347)" fill="#034a9a"/>
      <path id="Path_16055" data-name="Path 16055" d="M482.658,440.555l.218-.113.293.561-.514.268a.809.809,0,0,1-.263-.164.986.986,0,0,1-.224-.283.8.8,0,0,1-.1-.4.616.616,0,0,1,.125-.353.9.9,0,0,1,.3-.255.84.84,0,0,1,.4-.1.647.647,0,0,1,.37.123.76.76,0,0,1,.225.276.7.7,0,0,1,.095.428.514.514,0,0,1-.188.319l-.183-.233a.311.311,0,0,0,.1-.181.347.347,0,0,0-.043-.216.4.4,0,0,0-.25-.216.517.517,0,0,0-.374.067.57.57,0,0,0-.291.282.381.381,0,0,0,.025.327.51.51,0,0,0,.118.148.633.633,0,0,0,.152.1l.163-.086Z" transform="translate(-451.468 -430.29)" fill="#034a9a"/>
      <path id="Path_16056" data-name="Path 16056" d="M297.958,464.64l1.532.3-.091.463-1.1.072.991.48-.091.464-1.532-.3.056-.287,1.207.237-1.147-.541.059-.3,1.266-.066-1.206-.238Z" transform="translate(-296.614 -451.22)" fill="#034a9a"/>
      <path id="Path_16057" data-name="Path 16057" d="M297.261,476.22l1.551.18-.036.313-1.551-.18Z" transform="translate(-296.243 -460.945)" fill="#034a9a"/>
      <path id="Path_16058" data-name="Path 16058" d="M296.648,480.478l1.56.068-.013.306-1.07.593,1.041.046-.013.293-1.56-.069.014-.316,1.046-.584-1.018-.045Z" transform="translate(-295.713 -464.521)" fill="#034a9a"/>
      <path id="Path_16059" data-name="Path 16059" d="M296.672,490.4l1.561-.04.008.316-1.561.04Z" transform="translate(-295.779 -472.816)" fill="#034a9a"/>
      <path id="Path_16060" data-name="Path 16060" d="M297.373,494.032l.058.3a.376.376,0,0,0-.215.133.342.342,0,0,0-.052.235.351.351,0,0,0,.085.223.2.2,0,0,0,.157.063.144.144,0,0,0,.091-.042.252.252,0,0,0,.057-.119c.009-.038.025-.123.045-.257a.857.857,0,0,1,.121-.369.408.408,0,0,1,.3-.172.4.4,0,0,1,.229.046.422.422,0,0,1,.176.18.771.771,0,0,1,.082.3.653.653,0,0,1-.088.453.451.451,0,0,1-.328.187l-.043-.313a.265.265,0,0,0,.165-.1.316.316,0,0,0,.034-.2.361.361,0,0,0-.076-.21.113.113,0,0,0-.1-.041.117.117,0,0,0-.09.055.822.822,0,0,0-.077.3,1.555,1.555,0,0,1-.081.349.442.442,0,0,1-.142.186.465.465,0,0,1-.242.085.458.458,0,0,1-.257-.051.447.447,0,0,1-.193-.194.894.894,0,0,1-.088-.333.681.681,0,0,1,.095-.465A.593.593,0,0,1,297.373,494.032Z" transform="translate(-295.966 -475.899)" fill="#034a9a"/>
      <path id="Path_16061" data-name="Path 16061" d="M298.191,502.682l1.276-.236-.085-.456.26-.049.226,1.22-.26.049-.085-.455-1.275.237Z" transform="translate(-297.054 -482.544)" fill="#034a9a"/>
      <path id="Path_16062" data-name="Path 16062" d="M299.5,510.878l1.5-.431.182.638a1.124,1.124,0,0,1,.06.361.36.36,0,0,1-.094.216.443.443,0,0,1-.218.133.414.414,0,0,1-.307-.019.5.5,0,0,1-.224-.257.705.705,0,0,1-.079.2,1.718,1.718,0,0,1-.194.242l-.24.267-.1-.363.263-.312a1.988,1.988,0,0,0,.175-.223.242.242,0,0,0,.037-.109.546.546,0,0,0-.027-.158l-.018-.061-.627.179Zm.953.054.065.224a1.219,1.219,0,0,0,.1.266.164.164,0,0,0,.088.067.2.2,0,0,0,.122,0,.189.189,0,0,0,.111-.075.2.2,0,0,0,.026-.131c0-.025-.023-.1-.059-.223l-.068-.237Z" transform="translate(-298.151 -489.687)" fill="#034a9a"/>
      <path id="Path_16063" data-name="Path 16063" d="M303.26,519.191l.612-.24.633-.862.135.344L304.2,519l.707.11.133.338-1.053-.2-.611.239Z" transform="translate(-301.311 -496.104)" fill="#034a9a"/>
      <path id="Path_16064" data-name="Path 16064" d="M309.354,531.528a1,1,0,0,1,.383-.135.749.749,0,0,1,.258.022.608.608,0,0,1,.222.106.858.858,0,0,1,.219.263.733.733,0,0,1,.086.586.825.825,0,0,1-.417.473.761.761,0,0,1-1.16-.848A.807.807,0,0,1,309.354,531.528Zm.169.278a.585.585,0,0,0-.289.3.421.421,0,0,0,.269.532l.035.01a.6.6,0,0,0,.414-.1.584.584,0,0,0,.29-.3.436.436,0,0,0-.295-.541l-.015,0a.588.588,0,0,0-.41.094Z" transform="translate(-306.069 -507.275)" fill="#034a9a"/>
      <path id="Path_16065" data-name="Path 16065" d="M313.26,539.895l1.277-.9.615.876-.216.152-.433-.618-.3.213.375.533-.216.151-.375-.533-.543.381Z" transform="translate(-309.709 -513.663)" fill="#034a9a"/>
      <path id="Path_16066" data-name="Path 16066" d="M320.862,549.312l1.18-1.023.206.238-1.18,1.023Z" transform="translate(-316.093 -521.466)" fill="#034a9a"/>
      <path id="Path_16067" data-name="Path 16067" d="M323.654,552.14l1.1-1.1.217.217-.287,1.189.738-.737.207.208-1.106,1.1-.223-.224.276-1.165-.722.719Z" transform="translate(-318.438 -523.774)" fill="#034a9a"/>
      <path id="Path_16068" data-name="Path 16068" d="M331.078,558.851l1-1.2.824.684-.17.2-.58-.482-.236.284.5.417-.169.2-.5-.417-.424.51Z" transform="translate(-324.672 -529.327)" fill="#034a9a"/>
      <path id="Path_16069" data-name="Path 16069" d="M339.435,564.456a.989.989,0,0,1,.284-.291.739.739,0,0,1,.24-.1.618.618,0,0,1,.246,0,.869.869,0,0,1,.313.138.734.734,0,0,1,.337.487.958.958,0,0,1-.665.983.73.73,0,0,1-.575-.132.738.738,0,0,1-.339-.487A.81.81,0,0,1,339.435,564.456Zm.275.174a.586.586,0,0,0-.125.4.4.4,0,0,0,.181.288.393.393,0,0,0,.332.061.745.745,0,0,0,.457-.667.435.435,0,0,0-.5-.353l-.015,0a.59.59,0,0,0-.325.267Z" transform="translate(-331.548 -534.706)" fill="#034a9a"/>
      <path id="Path_16070" data-name="Path 16070" d="M347.319,569.719l.737-1.377.585.313a1.132,1.132,0,0,1,.3.209.36.36,0,0,1,.089.217.449.449,0,0,1-.056.25.414.414,0,0,1-.228.207.5.5,0,0,1-.34-.019.745.745,0,0,1,.087.2,1.689,1.689,0,0,1,.038.308l.025.359-.333-.178-.041-.407a2.34,2.34,0,0,0-.038-.281.247.247,0,0,0-.053-.1.529.529,0,0,0-.132-.091l-.056-.03-.308.575Zm.7-.645.206.11a1.192,1.192,0,0,0,.259.116.165.165,0,0,0,.109-.016.206.206,0,0,0,.083-.088.188.188,0,0,0,.023-.132.2.2,0,0,0-.076-.11c-.021-.015-.088-.053-.2-.113l-.217-.116Z" transform="translate(-338.311 -538.306)" fill="#034a9a"/>
      <path id="Path_16071" data-name="Path 16071" d="M356.579,574.183l.582-1.449.438.175L357.464,574l.657-.884.44.177-.582,1.449-.272-.109.459-1.14-.746,1.025-.282-.113.172-1.256-.458,1.14Z" transform="translate(-346.087 -541.994)" fill="#034a9a"/>
      <path id="Path_16072" data-name="Path 16072" d="M368.347,579.214l-.33-.092-.035-.379-.6-.168-.219.306-.322-.09,1.006-1.34.321.09Zm-.392-.751-.052-.616-.36.5Z" transform="translate(-354.702 -545.956)" fill="#034a9a"/>
      <path id="Path_16073" data-name="Path 16073" d="M377.837,580.418l.245-1.274-.455-.087.049-.259,1.219.234-.05.26-.453-.087-.245,1.273Z" transform="translate(-363.762 -547.086)" fill="#034a9a"/>
      <path id="Path_16074" data-name="Path 16074" d="M385.271,581.87l.2-1.549.313.04-.2,1.549Z" transform="translate(-370.181 -548.365)" fill="#034a9a"/>
      <path id="Path_16075" data-name="Path 16075" d="M389.359,581.671a1,1,0,0,1,.093-.4.756.756,0,0,1,.157-.206.616.616,0,0,1,.21-.129.863.863,0,0,1,.339-.043.731.731,0,0,1,.54.244.822.822,0,0,1,.175.606.814.814,0,0,1-.238.579.724.724,0,0,1-.56.183.732.732,0,0,1-.541-.243A.8.8,0,0,1,389.359,581.671Zm.325.007a.594.594,0,0,0,.1.408.421.421,0,0,0,.593.059l.027-.024a.6.6,0,0,0,.143-.4.588.588,0,0,0-.1-.406.4.4,0,0,0-.3-.149.4.4,0,0,0-.321.116.591.591,0,0,0-.14.4Z" transform="translate(-373.613 -548.846)" fill="#034a9a"/>
      <path id="Path_16076" data-name="Path 16076" d="M400.27,582.55l-.074-1.56.306-.014.688,1.011-.049-1.041.293-.014.074,1.56-.316.015-.677-.988.048,1.017Z" transform="translate(-382.715 -548.878)" fill="#034a9a"/>
      <path id="Path_16077" data-name="Path 16077" d="M415.069,580.929l-.337.061-.2-.324-.614.112-.063.372-.329.06.317-1.646.328-.06Zm-.682-.5-.316-.531-.1.608Z" transform="translate(-393.911 -547.681)" fill="#034a9a"/>
      <path id="Path_16078" data-name="Path 16078" d="M422.477,578.292l-.435-1.5.295-.085.9.824-.291-1,.282-.082.434,1.5-.3.088-.889-.8.283.978Z" transform="translate(-401.06 -545.112)" fill="#034a9a"/>
      <path id="Path_16079" data-name="Path 16079" d="M431.051,574.321l.534-.215a1.176,1.176,0,0,1,.286-.084.524.524,0,0,1,.272.045.681.681,0,0,1,.232.179,1.129,1.129,0,0,1,.186.323,1.016,1.016,0,0,1,.08.327.69.69,0,0,1-.052.318.557.557,0,0,1-.159.2.956.956,0,0,1-.247.135l-.55.223Zm.391.127.387.959.218-.089a.9.9,0,0,0,.172-.085.289.289,0,0,0,.093-.108.331.331,0,0,0,.021-.17,1.03,1.03,0,0,0-.078-.277.885.885,0,0,0-.134-.246.352.352,0,0,0-.139-.107.3.3,0,0,0-.163-.014,1.5,1.5,0,0,0-.246.083Z" transform="translate(-408.626 -543.073)" fill="#034a9a"/>
      <path id="Path_16080" data-name="Path 16080" d="M445.469,568.6l.312-.069a.685.685,0,0,1-.012.446.735.735,0,0,1-.846.386.809.809,0,0,1-.464-.4.856.856,0,0,1-.129-.625.693.693,0,0,1,.351-.451.648.648,0,0,1,.487-.086.624.624,0,0,1,.282.169l-.233.221a.327.327,0,0,0-.2-.108.331.331,0,0,0-.22.045.357.357,0,0,0-.182.25.611.611,0,0,0,.108.4.652.652,0,0,0,.3.312.345.345,0,0,0,.3-.03.314.314,0,0,0,.147-.177A.47.47,0,0,0,445.469,568.6Z" transform="translate(-419.763 -537.838)" fill="#034a9a"/>
      <path id="Path_16081" data-name="Path 16081" d="M452.732,563.492a1,1,0,0,1-.178-.366.73.73,0,0,1-.008-.259.614.614,0,0,1,.08-.232.871.871,0,0,1,.236-.248.734.734,0,0,1,.573-.152.81.81,0,1,1-.192,1.609A.8.8,0,0,1,452.732,563.492Zm.257-.2a.585.585,0,0,0,.335.253.421.421,0,0,0,.5-.328c0-.012,0-.024.006-.036a.6.6,0,0,0-.142-.4.586.586,0,0,0-.331-.254.394.394,0,0,0-.33.077.4.4,0,0,0-.176.293.587.587,0,0,0,.141.4Z" transform="translate(-426.67 -533.17)" fill="#034a9a"/>
      <path id="Path_16082" data-name="Path 16082" d="M460.379,555.707l-1.055-1.152.348-.318.929.594-.513-.975.349-.319,1.054,1.151-.216.2-.83-.906.6,1.116-.224.2-1.058-.7.83.906Z" transform="translate(-432.369 -525.873)" fill="#034a9a"/>
      <path id="Path_16083" data-name="Path 16083" d="M468.493,547.5l-1.182-1.021.309-.357.991.482-.623-.908.31-.357,1.182,1.02-.192.222-.93-.8.728,1.038-.2.229-1.132-.57.93.8Z" transform="translate(-439.076 -518.988)" fill="#034a9a"/>
      <path id="Path_16084" data-name="Path 16084" d="M474.36,538.732l.179-.26.7.479a1.8,1.8,0,0,0,.222.139.251.251,0,0,0,.182.008.327.327,0,0,0,.166-.139.318.318,0,0,0,.07-.2.218.218,0,0,0-.065-.144,1.656,1.656,0,0,0-.211-.162l-.711-.49.179-.26.675.465a2.128,2.128,0,0,1,.313.246.438.438,0,0,1,.108.189.465.465,0,0,1,0,.223.8.8,0,0,1-.131.275.856.856,0,0,1-.236.25.47.47,0,0,1-.214.075.438.438,0,0,1-.193-.025,1.881,1.881,0,0,1-.344-.2Z" transform="translate(-444.995 -512.579)" fill="#034a9a"/>
      <path id="Path_16085" data-name="Path 16085" d="M481.036,531.318l-1.37-.75.147-.269,1.221-.06-.915-.5.141-.257,1.37.749-.152.278-1.2.063.893.489Z" transform="translate(-449.451 -505.672)" fill="#034a9a"/>
      <path id="Path_16086" data-name="Path 16086" d="M485.484,527.026l-1.419-.651.131-.287,1.42.65Z" transform="translate(-453.145 -502.823)" fill="#034a9a"/>
      <path id="Path_16087" data-name="Path 16087" d="M487.7,518.438l.2-.252a.685.685,0,0,1,.273.352.734.734,0,0,1-.406.837.812.812,0,0,1-.615-.016.854.854,0,0,1-.5-.4.692.692,0,0,1-.017-.571.648.648,0,0,1,.322-.377.611.611,0,0,1,.325-.049l-.039.319a.321.321,0,0,0-.36.216.354.354,0,0,0,.018.307.608.608,0,0,0,.34.243.657.657,0,0,0,.433.048.346.346,0,0,0,.214-.216.316.316,0,0,0,0-.231A.471.471,0,0,0,487.7,518.438Z" transform="translate(-455.258 -495.994)" fill="#034a9a"/>
      <path id="Path_16088" data-name="Path 16088" d="M491.279,509.727l-.086.332-.377.043-.157.6.311.214-.084.323-1.359-.981.084-.323Zm-.744.407-.615.062.508.35Z" transform="translate(-457.731 -489.083)" fill="#034a9a"/>
      <path id="Path_16089" data-name="Path 16089" d="M492.4,501.636l-1.279-.218-.078.457-.26-.045.209-1.224.26.045-.078.456,1.279.218Z" transform="translate(-458.784 -481.424)" fill="#034a9a"/>
      <path id="Path_16090" data-name="Path 16090" d="M493.676,498.16,492.123,498l.033-.313,1.553.164Z" transform="translate(-459.912 -478.968)" fill="#034a9a"/>
      <path id="Path_16091" data-name="Path 16091" d="M493.313,488.715a.985.985,0,0,1-.4-.083.743.743,0,0,1-.21-.152.624.624,0,0,1-.134-.206.871.871,0,0,1-.052-.339.734.734,0,0,1,.231-.545.958.958,0,0,1,1.187.035.727.727,0,0,1,.2.556.739.739,0,0,1-.229.548A.81.81,0,0,1,493.313,488.715Zm0-.325a.584.584,0,0,0,.406-.11.421.421,0,0,0,.045-.593l-.025-.026a.6.6,0,0,0-.4-.133.59.59,0,0,0-.4.1.436.436,0,0,0-.027.616l.01.01a.59.59,0,0,0,.4.132Z" transform="translate(-460.244 -470.166)" fill="#034a9a"/>
      <path id="Path_16092" data-name="Path 16092" d="M493.841,478.687l-1.557.116-.023-.306.992-.715-1.04.078-.022-.292,1.557-.117.024.316-.969.7,1.016-.076Z" transform="translate(-459.97 -461.979)" fill="#034a9a"/>
      <path id="Path_16093" data-name="Path 16093" d="M492.3,469.22l-.082-.3a.372.372,0,0,0,.2-.149.339.339,0,0,0,.032-.238.347.347,0,0,0-.1-.215.192.192,0,0,0-.162-.05.14.14,0,0,0-.087.048.252.252,0,0,0-.047.123c-.007.038-.015.125-.024.26a.858.858,0,0,1-.091.377.408.408,0,0,1-.516.168.418.418,0,0,1-.189-.165.786.786,0,0,1-.107-.293.657.657,0,0,1,.051-.458.454.454,0,0,1,.312-.212l.068.308a.266.266,0,0,0-.155.116.317.317,0,0,0-.018.206.364.364,0,0,0,.093.2.114.114,0,0,0,.1.032.125.125,0,0,0,.085-.062.853.853,0,0,0,.052-.3,1.531,1.531,0,0,1,.052-.355.439.439,0,0,1,.126-.2.492.492,0,0,1,.5-.075.446.446,0,0,1,.208.178.872.872,0,0,1,.115.324.674.674,0,0,1-.056.472A.589.589,0,0,1,492.3,469.22Z" transform="translate(-459.059 -454.003)" fill="#034a9a"/>
      <path id="Path_16094" data-name="Path 16094" d="M347.455,427.635a10.775,10.775,0,0,1,9.835,5.793,10.169,10.169,0,0,0-19.84.385A10.7,10.7,0,0,1,347.455,427.635Z" transform="translate(-330.022 -418.502)" fill="#034a9a"/>
      <path id="Path_16095" data-name="Path 16095" d="M367.844,451.538a6.712,6.712,0,0,1,5.982,3.425,6.239,6.239,0,0,0-12.067.193A6.687,6.687,0,0,1,367.844,451.538Z" transform="translate(-350.437 -439.267)" fill="#034a9a"/>
      <path id="Path_16096" data-name="Path 16096" d="M340.713,547.076l.095,0a11.61,11.61,0,0,0-9.883-5.568,11.486,11.486,0,0,0-1.381.086A14.1,14.1,0,0,0,340.713,547.076Z" transform="translate(-323.384 -515.77)" fill="#034a9a"/>
      <path id="Path_16097" data-name="Path 16097" d="M311.52,488.613c-.132,0-.262.007-.394.01a14.123,14.123,0,0,0,.341,3,16.066,16.066,0,0,1,3.352.334c6.24,1.29,10.636,5.941,10.36,10.7h.068c.059,0,.116,0,.174,0A14.027,14.027,0,0,0,311.52,488.613Z" transform="translate(-307.917 -471.352)" fill="#034a9a"/>
      <path id="Path_16098" data-name="Path 16098" d="M316.562,516.882c-.2,0-.4.007-.6.016a14.044,14.044,0,0,0,1.041,2.307,14.8,14.8,0,0,1,3.457.3c4.413.911,7.837,3.642,9.175,6.88h.017A13.874,13.874,0,0,0,316.562,516.882Z" transform="translate(-311.98 -495.091)" fill="#034a9a"/>
      <path id="Path_16099" data-name="Path 16099" d="M399.151,547.076l-.095,0a11.518,11.518,0,0,1,11.265-5.483A14.1,14.1,0,0,1,399.151,547.076Z" transform="translate(-381.757 -515.77)" fill="#034a9a"/>
      <path id="Path_16100" data-name="Path 16100" d="M412.466,488.613c.132,0,.263.007.394.01a14.179,14.179,0,0,1-.34,3,16.067,16.067,0,0,0-3.352.334c-6.24,1.29-10.636,5.941-10.359,10.7l-.069,0c-.059,0-.116,0-.173,0A14.026,14.026,0,0,1,412.466,488.613Z" transform="translate(-381.347 -471.352)" fill="#034a9a"/>
      <path id="Path_16101" data-name="Path 16101" d="M410.593,516.882c.2,0,.4.007.6.016a14.069,14.069,0,0,1-1.04,2.307,14.8,14.8,0,0,0-3.457.3c-4.413.911-7.838,3.642-9.176,6.88H397.5A13.873,13.873,0,0,1,410.593,516.882Z" transform="translate(-380.45 -495.091)" fill="#034a9a"/>
      <path id="Path_16102" data-name="Path 16102" d="M381.211,464.05v4.3h-3.473Z" transform="translate(-363.855 -450.725)" fill="#034a9a"/>
      <path id="Path_16103" data-name="Path 16103" d="M399.893,495.479v-4.3h3.473Z" transform="translate(-382.46 -473.51)" fill="#034a9a"/>
      <path id="Path_16104" data-name="Path 16104" d="M308.454,380.889A17.314,17.314,0,1,0,325.809,398.2,17.335,17.335,0,0,0,308.454,380.889Zm0,34.3A16.989,16.989,0,1,1,325.483,398.2,17.009,17.009,0,0,1,308.454,415.192Z" transform="translate(-291.098 -380.889)" fill="#034a9a"/>
      <path id="Path_16105" data-name="Path 16105" d="M339.5,414.538a14.112,14.112,0,0,0-14.117-13.478h-.049a14.112,14.112,0,0,0-14.116,13.478c.829-6.053,6.839-10.752,14.141-10.766C332.661,403.786,338.671,408.485,339.5,414.538Z" transform="translate(-307.994 -397.828)" fill="#034a9a"/>
    </g>
  </g>
</svg>
