<svg xmlns="http://www.w3.org/2000/svg" width="203.835" height="91.408" viewBox="0 0 203.835 91.408"><g transform="translate(65.541 0)"><g transform="translate(38.518 3.915)"><path d="M1621.637,216.438a4.043,4.043,0,1,0-2.9.392c.055,2.516,0,4.877-.136,7.1q1.593-1.252,3.135-2.51C1621.779,218.862,1621.679,217.057,1621.637,216.438Zm-1.958-1.241a2.292,2.292,0,1,1,2.292-2.292A2.292,2.292,0,0,1,1619.679,215.2Z" transform="translate(-1601.307 -208.866)" fill="#f69f00"/><path d="M1448.094,467.3l1.264,2.8c13.291-5.852,17.468-20.683,18.7-31.466q-1.776,1.7-3.633,3.392C1460.567,462.787,1448.094,467.3,1448.094,467.3Z" transform="translate(-1448.094 -418.976)" fill="#f69f00"/></g><g transform="translate(13.453 8.536)"><path d="M1174.254,262.889a39.211,39.211,0,0,1-19.125,4.483s-1.167,15.92,6.1,27.051a93.657,93.657,0,0,0,13.027-5.849Z" transform="translate(-1155.06 -262.889)" fill="#f69f00"/><path d="M1313.448,678.713v-6.13q-3.039,1.817-6.174,3.41A22.144,22.144,0,0,0,1313.448,678.713Z" transform="translate(-1294.254 -637.539)" fill="#f69f00"/></g><path d="M1070.847,163.1c-7.513,5.325-18.6,5.665-21.557,5.656a4.071,4.071,0,1,0,.762,3.253c12.857-.272,20.795-4.994,20.795-4.994,6.379,3.642,17.566,5.007,17.566,5.007v-3.265A52.307,52.307,0,0,1,1070.847,163.1Zm-24.792,10.437a2.311,2.311,0,1,1,2.312-2.311A2.311,2.311,0,0,1,1046.055,173.535Z" transform="translate(-1038.201 -163.098)" fill="#f69f00"/><g transform="translate(6.529 14.951)"><path d="M1236.158,739.938a4.026,4.026,0,0,0-2.917,1.25,28.565,28.565,0,0,1-7.376-4.279c-1.033.459-2.074.89-3.12,1.3a29.866,29.866,0,0,0,9.385,5.98,4.037,4.037,0,1,0,4.029-4.254Zm0,6.332a2.292,2.292,0,1,1,2.292-2.292A2.292,2.292,0,0,1,1236.158,746.27Z" transform="translate(-1210.031 -702.778)" fill="#f69f00"/><path d="M1083.373,364.441c-7.185-11.8-5.79-26.553-5.79-26.553h-3.431c-.356,12.283,2.429,21.1,6.144,27.35Q1081.83,364.886,1083.373,364.441Z" transform="translate(-1074.121 -337.888)" fill="#f69f00"/></g><path d="M1070.541,240.845l-7.872,1.532,3.815,1.812c-7.928,7.241-39.427,34.664-61.916,34.778a1.683,1.683,0,0,1-1.682-1.38c-.155-1.007.387-2.484,3.49-4.131a20.854,20.854,0,0,1-1.832-4.254s-16.765,20.7,2.517,15.626c29.869-7.853,53.076-32.761,59.508-40.237l.433,4.082Z" transform="translate(-997.787 -234.195)" fill="#e50019"/><path d="M1379.718,548.17c9.776-2.663,14.609-10.555,16.977-18.341a134.05,134.05,0,0,1-16.977,12.2Z" transform="translate(-1347.048 -498.46)" fill="#e50019"/><path d="M1272.919,267.372a39.215,39.215,0,0,1-19.125-4.483v10.093h-.023a5.879,5.879,0,0,0-1.144.125l-1.256-2.78a1.8,1.8,0,1,0-1.324.42,1.818,1.818,0,0,0,.378-.007l1.2,2.658a5.927,5.927,0,0,0-3.126,2.829l-2.152-1.211a2.238,2.238,0,1,0-.455.8l2.251,1.267a5.856,5.856,0,0,0-.144,3.078l-2.657.375a1.736,1.736,0,1,0,.275.932c0-.013,0-.026,0-.039l2.66-.376a5.921,5.921,0,0,0,2.458,2.9l-1.142,1.825a1.763,1.763,0,1,0,.747.544l1.223-1.953a5.888,5.888,0,0,0,2.213.432h.023v3.758a155.376,155.376,0,0,0,18.834-12.148A55.161,55.161,0,0,0,1272.919,267.372Z" transform="translate(-1221.125 -254.353)" fill="#e50019"/></g><g transform="translate(0 70.749)"><g transform="translate(40.806 0)"><path d="M710.724,1017.13v-4.006h-2.1v-1.2h5.951v1.2h-2.131v4.006Z" transform="translate(-708.619 -1010.064)" fill="#5a5b5e"/><path d="M794.275,1017.218a3.21,3.21,0,0,1-.787-.111,1.881,1.881,0,0,1-.858-.544l-.371-.371a3.741,3.741,0,0,0-.509-.433,1.79,1.79,0,0,0-.553-.252,3.018,3.018,0,0,0-.778-.084h-.071v1.707h-1.724v-4.493l-.089-.716h4.094a2.548,2.548,0,0,1,.915.137,1.32,1.32,0,0,1,.54.363,1.252,1.252,0,0,1,.261.508,2.383,2.383,0,0,1,.071.575v.168a1.723,1.723,0,0,1-.27.951,1.472,1.472,0,0,1-.853.6q.221.133.42.27t.456.287a2.6,2.6,0,0,0,.544.243,2.382,2.382,0,0,0,.42.093c.112.012.177.018.195.018l-.265,1q-.106.026-.323.057A3.288,3.288,0,0,1,794.275,1017.218Zm-2.9-2.971q.221,0,.429-.009t.376-.026a.561.561,0,0,0,.411-.19.63.63,0,0,0,.11-.376v-.1a.4.4,0,0,0-.11-.3.584.584,0,0,0-.4-.106h-1.839v1.07c.147.006.31.013.486.022S791.192,1014.247,791.375,1014.247Z" transform="translate(-781.7 -1010.064)" fill="#5a5b5e"/><path d="M877.483,1017.313a1.923,1.923,0,0,1-1.34-.416,1.741,1.741,0,0,1-.456-1.344v-3.529h1.725v3.369a.638.638,0,0,0,.2.557.858.858,0,0,0,.5.141h1.141a.85.85,0,0,0,.5-.146.626.626,0,0,0,.212-.553v-3.369h1.7v3.529a1.763,1.763,0,0,1-.447,1.344,1.9,1.9,0,0,1-1.34.416Z" transform="translate(-861.397 -1010.159)" fill="#5a5b5e"/><path d="M960.656,1017.225v-4.492l-.089-.708H962.2l2.494,2.529.345.389h.1v-2.919h1.7v5.2h-1.477l-2.565-2.556-.345-.416h-.089v2.971Z" transform="translate(-939.017 -1010.159)" fill="#5a5b5e"/><path d="M1051.067,1017.13a1.9,1.9,0,0,1-1.37-.416,1.819,1.819,0,0,1-.425-1.344v-1.618a1.826,1.826,0,0,1,.469-1.393,1.87,1.87,0,0,1,1.326-.438h2.954a4.93,4.93,0,0,1,.933.066q.323.066.323.137l-.274,1.105q-.221-.027-.862-.057t-1.614-.031h-.822a.77.77,0,0,0-.562.155.668.668,0,0,0-.146.473v1.512a.74.74,0,0,0,.128.464q.128.164.579.164h.716q.407,0,.734,0t.575-.013v-.672l-.354.009-1.159.089v-1.22h3.2v2.662l.088.186q0,.071-.372.128a9.365,9.365,0,0,1-1.256.058Z" transform="translate(-1020.133 -1010.064)" fill="#5a5b5e"/><path d="M1155.277,1017.13v-4.006h-2.1v-1.2h5.951v1.2h-2.131v4.006Z" transform="translate(-1115.146 -1010.064)" fill="#5a5b5e"/><path d="M1215.308,997.276l2.591-5.2h2.3l2.582,5.2h-1.9l-.433-.947h-2.794l-.486.947Zm2.405-5.819a.719.719,0,0,1,.137-.358,3.75,3.75,0,0,1,.305-.416,3.137,3.137,0,0,1,.265-.287.716.716,0,0,1,.221-.137.973.973,0,0,1,.345-.049h.177a.945.945,0,0,1,.345.053.628.628,0,0,1,.212.133,2.3,2.3,0,0,1,.252.292,4.385,4.385,0,0,1,.283.42.746.746,0,0,1,.128.349c0,.1-.056.148-.168.141a.64.64,0,0,1-.318-.106l-.822-.548-.876.548a.692.692,0,0,1-.336.119C1217.764,991.615,1217.713,991.563,1217.713,991.457Zm.425,3.652h1.813l-.858-1.884H1219Z" transform="translate(-1171.967 -990.21)" fill="#5a5b5e"/><path d="M1311.855,1017.225v-4.492l-.088-.708h2.14l1.557,3.1,1.591-3.1h2.026v5.2h-1.689v-2.98h-.1l-.371.955-.646,1.495h-1.609L1314,1015.2l-.362-.955h-.089v2.98Z" transform="translate(-1260.175 -1010.159)" fill="#5a5b5e"/><path d="M1437.312,1017.13a1.9,1.9,0,0,1-1.371-.416,1.819,1.819,0,0,1-.425-1.344v-1.618a1.827,1.827,0,0,1,.469-1.393,1.87,1.87,0,0,1,1.327-.438h2.583a4.926,4.926,0,0,1,.932.066q.323.066.323.137l-.274,1.105q-.221-.027-.862-.057t-1.614-.031h-.451a.77.77,0,0,0-.562.155.669.669,0,0,0-.146.473v1.512a.738.738,0,0,0,.128.464q.128.164.579.164h.363q1.264,0,1.928-.031a5.945,5.945,0,0,0,.8-.066l.54.955c0,.03-.061.074-.182.133a2.4,2.4,0,0,1-.61.159,7.694,7.694,0,0,1-1.189.071Z" transform="translate(-1373.339 -1010.064)" fill="#5a5b5e"/><path d="M1517.437,997.276a1.894,1.894,0,0,1-1.366-.42,1.809,1.809,0,0,1-.429-1.34v-1.689a1.812,1.812,0,0,1,.424-1.327,1.881,1.881,0,0,1,1.371-.424h2.582a1.869,1.869,0,0,1,1.357.424,1.8,1.8,0,0,1,.429,1.327v1.689a1.8,1.8,0,0,1-.433,1.34,1.886,1.886,0,0,1-1.353.42Zm.609-1.2h1.371q.69,0,.69-.628V993.9q0-.619-.69-.619h-1.371a.836.836,0,0,0-.53.142.577.577,0,0,0-.177.478v1.548a.592.592,0,0,0,.177.477A.8.8,0,0,0,1518.046,996.073Zm-.671-4.616a.723.723,0,0,1,.137-.358,3.733,3.733,0,0,1,.305-.416,3.17,3.17,0,0,1,.265-.287.713.713,0,0,1,.221-.137.976.976,0,0,1,.345-.049h.177a.943.943,0,0,1,.345.053.63.63,0,0,1,.213.133,2.31,2.31,0,0,1,.252.292,4.479,4.479,0,0,1,.283.42.749.749,0,0,1,.129.349c0,.1-.056.148-.168.141a.64.64,0,0,1-.318-.106l-.822-.548-.876.548a.693.693,0,0,1-.336.119C1517.424,991.615,1517.375,991.563,1517.375,991.457Z" transform="translate(-1446.61 -990.21)" fill="#5a5b5e"/><path d="M1603.3,1017.225v-4.492l-.088-.708h1.627l2.494,2.529.345.389h.1v-2.919h1.7v5.2h-1.476l-2.565-2.556-.345-.416H1605v2.971Z" transform="translate(-1526.687 -1010.159)" fill="#5a5b5e"/><path d="M1693.707,1017.13a1.907,1.907,0,0,1-1.371-.416,1.821,1.821,0,0,1-.424-1.344v-1.618a1.827,1.827,0,0,1,.469-1.393,1.87,1.87,0,0,1,1.326-.438h2.954a4.927,4.927,0,0,1,.932.066q.323.066.323.137l-.274,1.105q-.221-.027-.862-.057t-1.614-.031h-.822a.77.77,0,0,0-.562.155.67.67,0,0,0-.146.473v1.512a.738.738,0,0,0,.128.464q.128.164.579.164h.716q.407,0,.734,0t.574-.013v-.672l-.354.009-1.159.089v-1.22h3.2v2.662l.088.186q0,.071-.371.128a9.369,9.369,0,0,1-1.255.058Z" transform="translate(-1607.803 -1010.064)" fill="#5a5b5e"/><path d="M1802.1,1017.225v-4.492l-.088-.708h1.627l2.494,2.529.345.389h.1v-2.919h1.7v5.2H1806.8l-2.564-2.556-.345-.416h-.088v2.971Z" transform="translate(-1708.489 -1010.159)" fill="#5a5b5e"/><path d="M1892.515,1017.13a1.905,1.905,0,0,1-1.371-.416,1.82,1.82,0,0,1-.425-1.344v-1.618a1.826,1.826,0,0,1,.469-1.393,1.871,1.871,0,0,1,1.326-.438h2.954a4.934,4.934,0,0,1,.933.066q.323.066.323.137l-.274,1.105q-.221-.027-.863-.057t-1.614-.031h-.822a.77.77,0,0,0-.562.155.668.668,0,0,0-.146.473v1.512a.737.737,0,0,0,.128.464q.128.164.579.164h.716q.407,0,.734,0t.574-.013v-.672l-.354.009-1.158.089v-1.22h3.2v2.662l.089.186q0,.071-.372.128a9.377,9.377,0,0,1-1.256.058Z" transform="translate(-1789.605 -1010.064)" fill="#5a5b5e"/><path d="M1978.082,1017.225v-5.2h1.707v1.981h2.75v-1.981h1.7v5.2h-1.7v-2.016h-2.75v2.016Z" transform="translate(-1869.495 -1010.159)" fill="#5a5b5e"/><path d="M2066.578,997.276v-5.2h5.677v1.2H2068.3v.734h2.927v1.229H2068.3v.822h3.811l.531,1.114c0,.024-.08.046-.239.067a7.324,7.324,0,0,1-.822.031Zm1.5-5.819a.719.719,0,0,1,.137-.358,3.659,3.659,0,0,1,.305-.416,3.122,3.122,0,0,1,.265-.287.722.722,0,0,1,.221-.137.98.98,0,0,1,.345-.049h.177a.945.945,0,0,1,.345.053.644.644,0,0,1,.213.133,2.31,2.31,0,0,1,.251.292,4.277,4.277,0,0,1,.283.42.747.747,0,0,1,.129.349c0,.1-.057.148-.168.141a.64.64,0,0,1-.319-.106l-.822-.548-.875.548a.693.693,0,0,1-.336.119Q2068.081,991.616,2068.081,991.457Zm1.42,7.65q-.812,0-.812-.692a.618.618,0,0,1,.2-.534,1.029,1.029,0,0,1,.607-.149,1.043,1.043,0,0,1,.623.149.633.633,0,0,1,.2.534Q2070.321,999.107,2069.5,999.107Z" transform="translate(-1950.421 -990.21)" fill="#5a5b5e"/></g><g transform="translate(0 10.073)"><path d="M231.661,1154.638v-4.492l-.088-.717h4.095a2.882,2.882,0,0,1,.951.129,1.217,1.217,0,0,1,.539.345,1.114,1.114,0,0,1,.239.5,3.094,3.094,0,0,1,.057.606v.7a2.175,2.175,0,0,1-.137.783,1.133,1.133,0,0,1-.5.575,2.1,2.1,0,0,1-1.057.217h-.61q-.557,0-1.039-.027t-.721-.044v1.424Zm1.725-2.556h1.831a.569.569,0,0,0,.407-.115.51.51,0,0,0,.115-.371v-.451a.555.555,0,0,0-.106-.376.535.535,0,0,0-.407-.12h-1.839Z" transform="translate(-231.573 -1145.883)" fill="#5a5b5e"/><path d="M314.8,1154.733v-5.2h1.707v1.981h2.75v-1.981h1.7v5.2h-1.7v-2.016h-2.75v2.016Z" transform="translate(-307.681 -1145.978)" fill="#5a5b5e"/><path d="M404.058,1134.5a1.9,1.9,0,0,1-1.366-.42,1.81,1.81,0,0,1-.429-1.34v-1.689a1.811,1.811,0,0,1,.424-1.327,1.88,1.88,0,0,1,1.371-.424h2.582a1.869,1.869,0,0,1,1.358.424,1.8,1.8,0,0,1,.429,1.327v1.689a1.8,1.8,0,0,1-.433,1.34,1.883,1.883,0,0,1-1.353.42Zm.61-1.2h1.371q.69,0,.69-.628v-1.547q0-.619-.69-.619h-1.371a.842.842,0,0,0-.531.141.578.578,0,0,0-.177.478v1.547a.592.592,0,0,0,.177.478A.8.8,0,0,0,404.668,1133.3Zm1.433-4.581a.947.947,0,0,0-.084-.323q-.084-.208-.19-.415t-.168-.314a.555.555,0,0,0-.2-.19.688.688,0,0,0-.332-.066h-.186a.7.7,0,0,0-.341.057.215.215,0,0,0-.093.2.539.539,0,0,0,.172.332,3.089,3.089,0,0,0,.416.376q.243.186.473.336a1.067,1.067,0,0,0,.225.106.42.42,0,0,0,.217.026A.109.109,0,0,0,406.1,1128.717Z" transform="translate(-387.663 -1125.745)" fill="#5a5b5e"/><path d="M489.918,1154.733v-4.492l-.088-.708h1.627l2.494,2.529.345.389h.1v-2.918h1.7v5.2h-1.477l-2.565-2.556-.345-.416h-.088v2.971Z" transform="translate(-467.739 -1145.978)" fill="#5a5b5e"/><path d="M580.33,1154.638a1.905,1.905,0,0,1-1.371-.416,1.819,1.819,0,0,1-.424-1.344v-1.619a1.826,1.826,0,0,1,.469-1.393,1.87,1.87,0,0,1,1.326-.438h2.954a4.951,4.951,0,0,1,.933.067q.323.066.323.137l-.274,1.105q-.221-.027-.862-.057t-1.614-.031h-.822a.771.771,0,0,0-.562.155.669.669,0,0,0-.146.473v1.512a.737.737,0,0,0,.128.464q.128.164.579.164h.716q.407,0,.734,0c.218,0,.41-.007.575-.014v-.672l-.354.009-1.159.088v-1.22h3.2v2.662l.089.186q0,.071-.372.128a9.37,9.37,0,0,1-1.256.058Z" transform="translate(-548.857 -1145.883)" fill="#5a5b5e"/><g transform="translate(41.541)"><path d="M719.007,1154.638a1.906,1.906,0,0,1-1.371-.416,1.819,1.819,0,0,1-.424-1.344v-1.619a1.827,1.827,0,0,1,.469-1.393,1.87,1.87,0,0,1,1.327-.438h2.582a4.95,4.95,0,0,1,.933.067q.323.066.323.137l-.274,1.105q-.221-.027-.862-.057t-1.614-.031h-.451a.771.771,0,0,0-.562.155.669.669,0,0,0-.146.473v1.512a.736.736,0,0,0,.128.464q.128.164.579.164h.363q1.265,0,1.928-.031a5.893,5.893,0,0,0,.8-.066l.54.955c0,.03-.061.074-.181.133a2.412,2.412,0,0,1-.61.159,7.682,7.682,0,0,1-1.189.071Z" transform="translate(-717.212 -1145.883)" fill="#5a5b5e"/><path d="M798.371,1154.733v-5.2h1.707v1.981h2.75v-1.981h1.7v5.2h-1.7v-2.016h-2.75v2.016Z" transform="translate(-791.429 -1145.978)" fill="#5a5b5e"/><path d="M887.629,1116.727a1.9,1.9,0,0,1-1.367-.42,1.809,1.809,0,0,1-.429-1.34v-1.689a1.809,1.809,0,0,1,.425-1.326,1.878,1.878,0,0,1,1.371-.425h2.582a1.868,1.868,0,0,1,1.357.425,1.8,1.8,0,0,1,.429,1.326v1.689a1.8,1.8,0,0,1-.433,1.34,1.884,1.884,0,0,1-1.353.42Zm-.1-5.819a.725.725,0,0,1,.137-.359,3.83,3.83,0,0,1,.3-.415,3.194,3.194,0,0,1,.265-.287.713.713,0,0,1,.221-.137.97.97,0,0,1,.345-.049h.177a.932.932,0,0,1,.345.053.616.616,0,0,1,.212.133,2.316,2.316,0,0,1,.252.292,4.37,4.37,0,0,1,.283.42.75.75,0,0,1,.128.349c0,.1-.056.148-.168.141a.635.635,0,0,1-.318-.106l-.822-.548-.876.548a.7.7,0,0,1-.336.119Q887.532,1111.067,887.532,1110.908Zm.708,4.616h1.371q.69,0,.69-.628v-1.547q0-.62-.69-.619h-1.371a.841.841,0,0,0-.531.141.579.579,0,0,0-.177.478v1.547a.593.593,0,0,0,.177.477A.8.8,0,0,0,888.239,1115.524Zm.168-6.244a.933.933,0,0,1,.084-.323q.084-.208.19-.416t.168-.314a.561.561,0,0,1,.2-.191.7.7,0,0,1,.332-.066h.185a.707.707,0,0,1,.341.058.215.215,0,0,1,.093.2.537.537,0,0,1-.173.331,3.055,3.055,0,0,1-.416.376q-.243.185-.473.336a1.071,1.071,0,0,1-.226.106.425.425,0,0,1-.217.027A.109.109,0,0,1,888.408,1109.281Z" transform="translate(-871.41 -1107.972)" fill="#5a5b5e"/><path d="M973.49,1154.733v-4.492l-.088-.708h1.627l2.494,2.529.345.389h.1v-2.918h1.7v5.2h-1.477l-2.565-2.556-.345-.416h-.088v2.971Z" transform="translate(-951.488 -1145.978)" fill="#5a5b5e"/><path d="M1063.9,1154.638a1.9,1.9,0,0,1-1.371-.416,1.818,1.818,0,0,1-.425-1.344v-1.619a1.826,1.826,0,0,1,.469-1.393,1.869,1.869,0,0,1,1.326-.438h2.954a4.949,4.949,0,0,1,.933.067q.323.066.323.137l-.274,1.105q-.221-.027-.862-.057t-1.614-.031h-.823a.771.771,0,0,0-.562.155.669.669,0,0,0-.146.473v1.512a.736.736,0,0,0,.128.464q.128.164.579.164h.716q.406,0,.734,0c.218,0,.409-.007.575-.014v-.672l-.354.009-1.159.088v-1.22h3.2v2.662l.089.186q0,.071-.372.128a9.367,9.367,0,0,1-1.256.058Z" transform="translate(-1032.605 -1145.883)" fill="#5a5b5e"/><path d="M1172.3,1154.733v-4.492l-.088-.708h4.1a2.554,2.554,0,0,1,1.605.424,1.592,1.592,0,0,1,.535,1.327v1.689a1.605,1.605,0,0,1-.531,1.34,2.568,2.568,0,0,1-1.61.42Zm1.725-1.22h2.025q.681,0,.69-.628v-1.53a.664.664,0,0,0-.151-.438.672.672,0,0,0-.539-.181h-2.025Z" transform="translate(-1133.292 -1145.978)" fill="#5a5b5e"/><path d="M1259.676,1154.733v-5.2h1.7v5.2Zm.828,1.831q-.813,0-.812-.692a.619.619,0,0,1,.2-.535,1.346,1.346,0,0,1,1.23,0,.631.631,0,0,1,.2.535Q1261.323,1156.564,1260.5,1156.564Z" transform="translate(-1213.275 -1145.978)" fill="#5a5b5e"/><path d="M1296.828,1154.638a1.9,1.9,0,0,1-1.371-.416,1.819,1.819,0,0,1-.425-1.344v-1.619a1.828,1.828,0,0,1,.469-1.393,1.87,1.87,0,0,1,1.327-.438h2.582a4.953,4.953,0,0,1,.933.067q.322.066.323.137l-.274,1.105q-.221-.027-.862-.057t-1.614-.031h-.451a.772.772,0,0,0-.562.155.669.669,0,0,0-.146.473v1.512a.736.736,0,0,0,.128.464q.128.164.579.164h.362q1.265,0,1.928-.031a5.908,5.908,0,0,0,.8-.066l.539.955c0,.03-.06.074-.181.133a2.412,2.412,0,0,1-.61.159,7.682,7.682,0,0,1-1.189.071Z" transform="translate(-1245.607 -1145.883)" fill="#5a5b5e"/><path d="M1376.192,1154.733v-5.2h1.707v1.981h2.75v-1.981h1.7v5.2h-1.7v-2.016h-2.75v2.016Z" transform="translate(-1319.824 -1145.978)" fill="#5a5b5e"/><path d="M1488.193,1154.638a1.906,1.906,0,0,1-1.371-.416,1.821,1.821,0,0,1-.424-1.344v-1.619a1.826,1.826,0,0,1,.469-1.393,1.87,1.87,0,0,1,1.326-.438h2.582a4.951,4.951,0,0,1,.933.067c.215.044.323.09.323.137l-.274,1.105q-.221-.027-.862-.057t-1.614-.031h-.451a.771.771,0,0,0-.562.155.67.67,0,0,0-.146.473v1.512a.738.738,0,0,0,.128.464q.128.164.579.164h.363q1.265,0,1.928-.031a5.913,5.913,0,0,0,.8-.066l.539.955c0,.03-.06.074-.181.133a2.413,2.413,0,0,1-.611.159,7.68,7.68,0,0,1-1.189.071Z" transform="translate(-1420.603 -1145.883)" fill="#5a5b5e"/><path d="M1568.317,1154.733a1.9,1.9,0,0,1-1.366-.42,1.81,1.81,0,0,1-.429-1.34v-1.689a1.812,1.812,0,0,1,.424-1.327,1.883,1.883,0,0,1,1.371-.424h2.583a1.872,1.872,0,0,1,1.358.424,1.8,1.8,0,0,1,.429,1.327v1.689a1.8,1.8,0,0,1-.433,1.34,1.885,1.885,0,0,1-1.353.42Zm.61-1.2h1.37q.69,0,.69-.628v-1.547q0-.619-.69-.619h-1.37a.838.838,0,0,0-.53.142.576.576,0,0,0-.177.478v1.547a.592.592,0,0,0,.177.477A.8.8,0,0,0,1568.927,1153.53Z" transform="translate(-1493.874 -1145.978)" fill="#5a5b5e"/><path d="M1645.522,1154.828l-2.388-5.191H1645l1.308,3.131.239.725h.079l.23-.725,1.335-3.131h1.822l-.142.531-2.22,4.66Z" transform="translate(-1563.933 -1146.073)" fill="#5a5b5e"/><path d="M1731.839,1154.733v-5.2h1.7v5.2Z" transform="translate(-1645.05 -1145.978)" fill="#5a5b5e"/><path d="M1768.318,1154.733v-4.492l-.089-.708h4.1a2.553,2.553,0,0,1,1.6.424,1.591,1.591,0,0,1,.535,1.327v1.689a1.605,1.605,0,0,1-.531,1.34,2.57,2.57,0,0,1-1.609.42Zm1.725-1.22h2.025q.681,0,.69-.628v-1.53a.664.664,0,0,0-.15-.438.673.673,0,0,0-.539-.181h-2.025Z" transform="translate(-1678.328 -1145.978)" fill="#5a5b5e"/><path d="M1855.695,1176.966v-1.38h2.83v1.38Z" transform="translate(-1758.311 -1169.803)" fill="#5a5b5e"/><path d="M1900.24,1153.786v-4l-1.061.08-.062-1.105,2.821-.265v5.288Z" transform="translate(-1798.019 -1145.031)" fill="#5a5b5e"/><path d="M1947.349,1154.733a8.961,8.961,0,0,1-.955-.04,2.322,2.322,0,0,1-.518-.1.661.661,0,0,1-.226-.124l.434-1.052q.212.018.867.057t1.875.04c.259,0,.424-.053.495-.159a.668.668,0,0,0,.106-.38v-.2a4.208,4.208,0,0,1-.548.053q-.363.017-.946.018h-.787a1.627,1.627,0,0,1-1.251-.4,1.554,1.554,0,0,1-.359-1.079v-.124a1.734,1.734,0,0,1,.425-1.3,1.89,1.89,0,0,1,1.353-.411h2.043a1.927,1.927,0,0,1,1.07.257,1.424,1.424,0,0,1,.553.654,2.192,2.192,0,0,1,.163.84v1.689a2.468,2.468,0,0,1-.146.853,1.3,1.3,0,0,1-.53.655,2.032,2.032,0,0,1-1.11.252Zm.539-2.936h1.539v-.531a.526.526,0,0,0-.137-.407.69.69,0,0,0-.464-.124h-.964a.668.668,0,0,0-.491.132.58.58,0,0,0-.119.4v.071a.508.508,0,0,0,.1.34Q1947.455,1151.8,1947.888,1151.8Z" transform="translate(-1840.467 -1145.978)" fill="#5a5b5e"/><path d="M2050.952,1154.733a2.2,2.2,0,0,1-.974-.177,1.009,1.009,0,0,1-.5-.531,2.312,2.312,0,0,1-.146-.875v-2.043a2.309,2.309,0,0,1,.141-.862,1.013,1.013,0,0,1,.5-.531,2.19,2.19,0,0,1,.982-.181h2.962a1.776,1.776,0,0,1,.968.225,1.222,1.222,0,0,1,.5.619,2.6,2.6,0,0,1,.146.906v.805a3.9,3.9,0,0,1-.079.858,1.656,1.656,0,0,1-.252.588,2.02,2.02,0,0,1-.465.455,3.5,3.5,0,0,1-.717.372l.474.106c.162.035.332.074.509.115q.7.15,1.092.195t.579.044l-.283,1.026-.195.053a1.651,1.651,0,0,1-.4.035,3.4,3.4,0,0,1-.615-.057q-.314-.057-.712-.172a5.385,5.385,0,0,1-.716-.278q-.345-.164-.734-.323a5.217,5.217,0,0,0-.885-.265A5.679,5.679,0,0,0,2050.952,1154.733Zm.813-1.2h.362a3.017,3.017,0,0,0,1-.132.874.874,0,0,0,.522-.482,2.516,2.516,0,0,0,.155-.987v-.574a.618.618,0,0,0-.164-.451.709.709,0,0,0-.526-.168h-1.344a.779.779,0,0,0-.544.155.607.607,0,0,0-.164.464v1.547a.632.632,0,0,0,.158.477A.794.794,0,0,0,2051.766,1153.53Z" transform="translate(-1935.386 -1145.978)" fill="#5a5b5e"/><path d="M2139.422,1154.821a1.922,1.922,0,0,1-1.34-.416,1.739,1.739,0,0,1-.456-1.344v-3.528h1.725v3.369a.639.639,0,0,0,.2.557.861.861,0,0,0,.5.141h1.14a.853.853,0,0,0,.5-.146.627.627,0,0,0,.212-.552v-3.369h1.7v3.528a1.762,1.762,0,0,1-.447,1.344,1.9,1.9,0,0,1-1.34.416Z" transform="translate(-2016.127 -1145.978)" fill="#5a5b5e"/><path d="M2223.268,1116.727a1.894,1.894,0,0,1-1.366-.42,1.809,1.809,0,0,1-.429-1.34v-1.689a1.811,1.811,0,0,1,.424-1.326,1.88,1.88,0,0,1,1.371-.425h2.582a1.868,1.868,0,0,1,1.358.425,1.8,1.8,0,0,1,.428,1.326v1.689a1.8,1.8,0,0,1-.433,1.34,1.884,1.884,0,0,1-1.353.42Zm-.1-5.819a.719.719,0,0,1,.137-.359,3.781,3.781,0,0,1,.3-.415,3.162,3.162,0,0,1,.266-.287.716.716,0,0,1,.221-.137.972.972,0,0,1,.345-.049h.177a.936.936,0,0,1,.345.053.616.616,0,0,1,.212.133,2.286,2.286,0,0,1,.252.292,4.338,4.338,0,0,1,.283.42.747.747,0,0,1,.128.349q0,.151-.167.141a.636.636,0,0,1-.319-.106l-.822-.548-.875.548a.7.7,0,0,1-.336.119Q2223.17,1111.067,2223.17,1110.908Zm.708,4.616h1.37q.691,0,.69-.628v-1.547q0-.62-.69-.619h-1.37a.844.844,0,0,0-.531.141.579.579,0,0,0-.177.478v1.547a.593.593,0,0,0,.177.477A.805.805,0,0,0,2223.878,1115.524Zm.168-6.244a.927.927,0,0,1,.084-.323q.084-.208.19-.416t.168-.314a.56.56,0,0,1,.2-.191.7.7,0,0,1,.332-.066h.186a.7.7,0,0,1,.34.058.215.215,0,0,1,.093.2.536.536,0,0,1-.172.331,3.03,3.03,0,0,1-.416.376c-.162.124-.32.236-.473.336a1.071,1.071,0,0,1-.225.106.424.424,0,0,1-.216.027A.109.109,0,0,1,2224.045,1109.281Z" transform="translate(-2092.8 -1107.972)" fill="#5a5b5e"/><path d="M2309.8,1154.638a1.906,1.906,0,0,1-1.371-.416,1.82,1.82,0,0,1-.424-1.344v-1.619a1.828,1.828,0,0,1,.469-1.393,1.87,1.87,0,0,1,1.327-.438h2.582a4.953,4.953,0,0,1,.933.067q.322.066.322.137l-.273,1.105q-.222-.027-.863-.057t-1.614-.031h-.451a.769.769,0,0,0-.561.155.666.666,0,0,0-.146.473v1.512a.742.742,0,0,0,.128.464q.129.164.58.164h.363q1.265,0,1.927-.031a5.887,5.887,0,0,0,.8-.066l.54.955c0,.03-.06.074-.181.133a2.417,2.417,0,0,1-.61.159,7.679,7.679,0,0,1-1.189.071Z" transform="translate(-2171.933 -1145.883)" fill="#5a5b5e"/><path d="M2412.67,1154.638a1.9,1.9,0,0,1-1.371-.416,1.817,1.817,0,0,1-.425-1.344v-1.619a1.828,1.828,0,0,1,.469-1.393,1.871,1.871,0,0,1,1.327-.438h2.953a4.947,4.947,0,0,1,.933.067c.216.044.323.09.323.137l-.274,1.105q-.222-.027-.863-.057t-1.614-.031h-.822a.77.77,0,0,0-.562.155.663.663,0,0,0-.146.473v1.512a.738.738,0,0,0,.128.464c.085.109.279.164.58.164h.716q.406,0,.734,0c.218,0,.409-.007.574-.014v-.672l-.354.009-1.158.088v-1.22h3.2v2.662l.088.186c0,.047-.124.09-.371.128a9.378,9.378,0,0,1-1.256.058Z" transform="translate(-2266.002 -1145.883)" fill="#5a5b5e"/><path d="M2498.237,1154.733v-5.2h1.7v5.2Z" transform="translate(-2345.891 -1145.978)" fill="#5a5b5e"/><path d="M2527.183,1154.733l2.592-5.2h2.3l2.582,5.2h-1.9l-.433-.946h-2.794l-.487.946Zm2.83-2.166h1.813l-.858-1.884h-.088Z" transform="translate(-2372.361 -1145.978)" fill="#5a5b5e"/></g><g transform="translate(37.289 7.673)"><path d="M668.71,1197.671v1.173c.021.719-.244,1-1.2.991v-.523c.4-.007.5-.119.5-.468h-.433v-1.173Z" transform="translate(-667.509 -1197.671)" fill="#5a5b5e"/></g></g></g></svg>