<svg xmlns="http://www.w3.org/2000/svg" width="36" height="36" viewBox="0 0 36 36">
  <g id="Group_8059" data-name="Group 8059" transform="translate(-1082.75 -19)">
    <circle id="Ellipse_1124" data-name="Ellipse 1124" cx="18" cy="18" r="18" transform="translate(1082.75 19)" fill="#fff"/>
    <g id="Group_5820" data-name="Group 5820" transform="translate(1086.159 22.423)">
      <path id="Path_14729" data-name="Path 14729" d="M-1039.743-18.6q4.675,0,9.349,0a.284.284,0,0,1,.273.143,11.4,11.4,0,0,1,1.894,5.418,11.55,11.55,0,0,1-7.21,11.723,11.539,11.539,0,0,1-3.941.827c-.13,0-.173-.023-.17-.162.02-1.007.03-2.014.043-3.02,0-.176-.011-.185-.177-.116-.062.026-.12.061-.181.09a.317.317,0,0,0-.188.337c.021.894.025,1.789.046,2.683,0,.162-.044.193-.2.187a11.547,11.547,0,0,1-10.776-8.86A11.381,11.381,0,0,1-1049.4-18.4a.387.387,0,0,1,.377-.2Q-1044.384-18.592-1039.743-18.6Zm3.285,6.989a2.022,2.022,0,0,0-.414-1.331,2.742,2.742,0,0,0-2.113-1.029c-.089-.006-.1.039-.1.111,0,.186,0,.372-.009.556-.007.112.034.147.138.156a2,2,0,0,1,.74.214,1.2,1.2,0,0,1,.148,2.144,2.479,2.479,0,0,1-1.016.381,8.463,8.463,0,0,0-1.858.473,2.033,2.033,0,0,0-1.073.978,1.515,1.515,0,0,0,.273,1.8,3,3,0,0,0,1.26.72c.085.028.125.012.121-.088-.009-.2-.015-.4-.012-.607a.177.177,0,0,0-.113-.181,1.547,1.547,0,0,1-.5-.4.74.74,0,0,1,.05-1.037,1.62,1.62,0,0,1,.513-.348,3.917,3.917,0,0,1,1.075-.273,4.469,4.469,0,0,0,2.035-.8A1.893,1.893,0,0,0-1036.458-11.608Zm-2.59-4.583c-.008-.1-.01-.15-.017-.2a.747.747,0,0,0-.656-.649.724.724,0,0,0-.735.5,1.057,1.057,0,0,0-.01.614,5.814,5.814,0,0,1,.257,1.286c.007.484.015.967.022,1.451.012.855.026,1.709.034,2.564,0,.119.021.161.149.121a2.261,2.261,0,0,1,.444-.094c.135-.013.159-.074.16-.2.009-.95.033-1.9.035-2.851a7.274,7.274,0,0,1,.28-2.316A1.186,1.186,0,0,0-1039.047-16.191Zm-1.268,13.48a1.961,1.961,0,0,0-.023-.566.438.438,0,0,1,.126-.488,1.37,1.37,0,0,1,.763-.364,2.623,2.623,0,0,0,1.233-.51,1.044,1.044,0,0,0,.117-1.6,2.144,2.144,0,0,0-.805-.541c-.281-.114-.272-.113-.287.185s-.026.56.33.738.336.529.01.774a1.971,1.971,0,0,1-.723.309,2.045,2.045,0,0,0-1.148.629A.875.875,0,0,0-1040.315-2.711Zm-3.3-7.857c.059-.293.308-.424.474-.622a.414.414,0,0,1,.2-.119,4.615,4.615,0,0,0,1.607-1.021c.124-.115.25-.224.383-.327.158-.121.421-.138.485-.324a1.931,1.931,0,0,0,0-.619c0-.022,0-.045,0-.067.008-.094-.043-.1-.115-.078-.471.149-.946.287-1.412.451a1.084,1.084,0,0,0-.672.648,5.885,5.885,0,0,1-.263.546,1.024,1.024,0,0,0-.186.732.072.072,0,0,1-.028.074,2.359,2.359,0,0,1-.557.483c-.119.053-.252.028-.384.1a1.493,1.493,0,0,0,.288,0C-1043.674-10.739-1043.657-10.653-1043.616-10.568Zm3.522,5.661c.188-.054.337-.1.489-.137.1-.022.131-.072.13-.173,0-.343,0-.686.009-1.028q.02-1.349.043-2.7c0-.11-.017-.157-.139-.121a3.461,3.461,0,0,1-.41.093c-.122.02-.16.077-.157.2.017.77.027,1.54.034,2.31C-1040.09-5.946-1040.094-5.435-1040.094-4.906Zm1.712,3.273a1.357,1.357,0,0,0-.778-1.069c-.026-.008-.051-.025-.075,0a.5.5,0,0,0,.093.45,1.018,1.018,0,0,1,.571.609.2.2,0,0,0,.032.059c.027.037.058.077.109.062S-1038.382-1.588-1038.382-1.633Z" transform="translate(1054.327 26.644)" fill="#343c93"/>
      <path id="Path_14730" data-name="Path 14730" d="M-966-161.771h-18.583a11.315,11.315,0,0,1,8.034-4.615,11.438,11.438,0,0,1,10.568,4.555Zm-8.492-1.088,0,0,0,0c-.008-.043.009-.085-.006-.132-.077-.226-.131-.461-.223-.681-.046-.11-.015-.14.065-.194.241-.166.476-.342.713-.514-.026-.035-.056-.024-.082-.024-.264,0-.529,0-.793,0a.155.155,0,0,1-.183-.137c-.061-.224-.145-.442-.222-.662-.011-.031.011-.091-.053-.085-.046,0-.052.048-.064.087-.041.138-.09.274-.134.411-.124.384-.124.384-.526.384h-.591a6.149,6.149,0,0,0,.677.528.168.168,0,0,1,.079.234c-.1.27-.18.545-.282.86.25-.184.471-.33.672-.5.134-.113.221-.1.354,0A2.889,2.889,0,0,0-974.492-162.859Z" transform="translate(989.855 169.508)" fill="#d10326"/>
      <path id="Path_14731" data-name="Path 14731" d="M-1135.172-165.912a2.121,2.121,0,0,1,.155.2c.04.066-.036.084-.07.111a13.992,13.992,0,0,0-5.044,8.1,14.067,14.067,0,0,0,1.769,10.546c.085.142.045.241-.118.28-.091.022-.1-.061-.126-.107a14.266,14.266,0,0,1-1.337-2.793,14.306,14.306,0,0,1-.732-6.479,14.416,14.416,0,0,1,5.349-9.738C-1135.281-165.829-1135.232-165.865-1135.172-165.912Z" transform="translate(1140.776 168.982)" fill="#3c4397"/>
      <path id="Path_14732" data-name="Path 14732" d="M-441.257-153.274a14.4,14.4,0,0,1-2.15,7.429c-.076.124-.127.153-.254.063-.092-.066-.079-.1-.03-.184a13.491,13.491,0,0,0,1.962-5.343,14.1,14.1,0,0,0-4.567-12.785,8.159,8.159,0,0,0-.645-.543c-.109-.083-.07-.13-.01-.211s.11-.107.205-.029a14.515,14.515,0,0,1,5.19,8.471A14.856,14.856,0,0,1-441.257-153.274Z" transform="translate(470.428 168.03)" fill="#3c4397"/>
      <path id="Path_14733" data-name="Path 14733" d="M-1114.848-149.406a.358.358,0,0,1,.139.15c.051.076-.035.1-.071.125a13.522,13.522,0,0,0-2.185,2.2,13.349,13.349,0,0,0-2.823,6.69,13.474,13.474,0,0,0,1.913,8.925c.06.1.039.134-.046.194-.112.079-.143.006-.189-.069a13.5,13.5,0,0,1-1.876-5.039,13.727,13.727,0,0,1,2.138-9.933,13.557,13.557,0,0,1,2.893-3.161C-1114.919-149.355-1114.882-149.381-1114.848-149.406Z" transform="translate(1120.864 153.033)" fill="#3c4397"/>
      <path id="Path_14734" data-name="Path 14734" d="M-453.376-138.048a13.873,13.873,0,0,1-2.059,7.257c-.045.073-.072.17-.2.08-.088-.063-.1-.1-.043-.195a13.215,13.215,0,0,0,1.928-5.51,13.469,13.469,0,0,0-2.437-9.565,13.226,13.226,0,0,0-2.579-2.723c-.087-.07-.108-.111-.033-.21s.133-.053.2,0a13.8,13.8,0,0,1,5.033,8.613A14.476,14.476,0,0,1-453.376-138.048Z" transform="translate(481.86 152.617)" fill="#3c4397"/>
      <path id="Path_14735" data-name="Path 14735" d="M-465.28-123.159a13.171,13.171,0,0,1-1.965,6.952c-.031.05-.037.154-.154.09s-.095-.119-.037-.21a12.389,12.389,0,0,0,1.22-2.568,13.026,13.026,0,0,0-4.153-14.389c-.045-.036-.157-.049-.095-.16s.117-.113.218-.031a13.291,13.291,0,0,1,2.892,3.228A13.144,13.144,0,0,1-465.28-123.159Z" transform="translate(493.108 137.694)" fill="#3c4397"/>
      <path id="Path_14736" data-name="Path 14736" d="M-1095.8-134.058c.067.018.089.074.12.118.048.066-.022.087-.057.115a12.965,12.965,0,0,0-1.223,1.111,12.746,12.746,0,0,0-3.518,7.035,12.85,12.85,0,0,0,1.749,8.827c.031.051.128.1.037.184s-.147.069-.216-.043a13.124,13.124,0,0,1-1.576-3.764,13.232,13.232,0,0,1,4.539-13.473C-1095.9-133.985-1095.848-134.022-1095.8-134.058Z" transform="translate(1102.216 138.203)" fill="#3c4397"/>
      <path id="Path_14737" data-name="Path 14737" d="M-1077.37-119.377c.057.018.075.063.1.1.036.05-.015.068-.042.091-.125.1-.254.2-.377.312a12.212,12.212,0,0,0-4.175,7.539,12.224,12.224,0,0,0,1.686,8.371c.038.062.114.123,0,.189s-.124-.042-.154-.092a12.354,12.354,0,0,1-1.775-8.015,12.414,12.414,0,0,1,4.614-8.4C-1077.456-119.315-1077.411-119.347-1077.37-119.377Z" transform="translate(1084.178 124.017)" fill="#3c4397"/>
      <path id="Path_14738" data-name="Path 14738" d="M-476.371-109.234a12.515,12.515,0,0,1-1.848,6.571c-.031.051-.035.163-.144.125s-.089-.108-.036-.194a12.237,12.237,0,0,0,1-2.02,12.418,12.418,0,0,0-3.751-14.117,1.017,1.017,0,0,0-.105-.084c-.072-.044-.064-.085-.017-.147s.088-.041.137,0c.288.234.572.473.839.731a12.547,12.547,0,0,1,3.781,7.253A11.869,11.869,0,0,1-476.371-109.234Z" transform="translate(503.565 123.79)" fill="#3c4397"/>
      <path id="Path_14739" data-name="Path 14739" d="M-899.33,513.945a.385.385,0,0,0,.219.411.258.258,0,0,0,.312-.042.248.248,0,0,0,.034-.325c-.067-.11-.149-.211-.225-.315a.5.5,0,0,1-.012-.638.507.507,0,0,1,.587-.176.51.51,0,0,1,.21.1.967.967,0,0,0,.424.21,11.842,11.842,0,0,0,1.669.514.909.909,0,0,1,.129.038.406.406,0,0,1,.309.394.422.422,0,0,1-.359.429c-.158.02-.13.084-.1.183.09.257.176.516.271.794-.15-.033-.274-.058-.4-.088-.069-.017-.066-.084-.081-.135a3.493,3.493,0,0,0-.252-.719c-.048.2-.1.4-.142.6-.022.1-.051.138-.167.1-.231-.08-.234-.071-.176-.311q.14-.581.279-1.163a1.446,1.446,0,0,0,.018-.149c-.071.116-.135.041-.193.015-.261-.118-.261-.12-.357.154-.125.355-.253.709-.374,1.066-.033.1-.06.138-.175.086-.229-.105-.232-.1-.143-.344.127-.354.249-.71.382-1.062.044-.115.012-.15-.1-.189s-.233,0-.311-.126c-.019-.03-.068.091-.147.1-.033-.122-.046-.263-.2-.319a.246.246,0,0,0-.3.037.224.224,0,0,0-.021.295c.078.123.165.241.249.36a.489.489,0,0,1,.027.57.52.52,0,0,1-.516.253.873.873,0,0,1-.49-.2c-.112-.089-.154-.175-.023-.282C-899.423,514.029-899.409,513.972-899.33,513.945Zm3.266.085a.337.337,0,0,0-.007-.067.263.263,0,0,0-.255-.183c-.127-.017-.087.1-.109.166-.04.116-.055.239-.093.356s.019.139.111.148C-896.223,514.469-896.072,514.3-896.064,514.03Z" transform="translate(907.685 -486.849)" fill="#3c4397"/>
      <path id="Path_14740" data-name="Path 14740" d="M-915.767-221.428a1.181,1.181,0,0,1,.324.018.509.509,0,0,1,.378.391.456.456,0,0,1-.216.494,13.681,13.681,0,0,1-1.253.723c-.064.034-.1.026-.133-.039q-.464-.869-.933-1.735c-.032-.059-.02-.091.036-.121a6.974,6.974,0,0,1,1.149-.556c.235-.074.48-.133.664.1A.557.557,0,0,1-915.767-221.428Zm.2.626a.4.4,0,0,0-.549-.371,2.377,2.377,0,0,0-.467.232.084.084,0,0,0-.038.135c.107.191.209.385.312.579.026.048.048.087.114.05a2.023,2.023,0,0,0,.511-.352A.4.4,0,0,0-915.571-220.8Zm-.98-1.2a1.322,1.322,0,0,0-.535.23c-.057.035-.022.077,0,.116.1.177.2.353.292.531.031.058.059.09.128.044a3.574,3.574,0,0,0,.409-.266.307.307,0,0,0,.1-.375A.4.4,0,0,0-916.551-222Z" transform="translate(925.15 223.483)" fill="#3c4397"/>
      <path id="Path_14741" data-name="Path 14741" d="M-838.027-252.857a1.027,1.027,0,0,1-1.073-.753.943.943,0,0,1,.4-1.145c.133-.092.146-.237.224-.351.22-.32.4-.357.684-.077a.265.265,0,0,0,.2.083,1.094,1.094,0,0,1,1.022,1.34,1.029,1.029,0,0,1-.765.755A1.767,1.767,0,0,1-838.027-252.857Zm.271-.2a.7.7,0,0,0,.714-.59,1.185,1.185,0,0,0-.448-1.1.726.726,0,0,0-1.049.242,1.1,1.1,0,0,0,.567,1.417A.677.677,0,0,0-837.757-253.057Zm-.586-1.909.4-.121C-838.183-255.215-838.183-255.215-838.343-254.966Z" transform="translate(849.341 255.421)" fill="#3c4397"/>
      <path id="Path_14742" data-name="Path 14742" d="M-479,417.723c-.04-.035-.075-.062-.107-.092-.3-.28-.6-.556-.9-.841-.087-.084-.138-.094-.241-.013-.264.207-.271.2-.054.456s.453.544.686.811c.076.087.106.136-.015.218-.191.129-.185.139-.33-.033-.25-.3-.5-.591-.747-.892-.073-.09-.128-.109-.207-.015-.043.051-.1.094-.144.142s-.078.1-.14.01c-.043-.061-.08-.1,0-.16.3-.241.587-.49.88-.735a.581.581,0,0,1,.067-.049c.1-.063.149-.244.262-.222s.185.154.276.237c.2.188.2.188.4-.012.11-.112.285-.22.292-.354s-.2-.208-.3-.32c-.05-.056-.168-.094-.136-.17a.838.838,0,0,1,.21-.236c.035-.033.058.013.08.033.379.352.757.705,1.136,1.056.054.05.052.081,0,.136-.193.206-.191.209-.4.012-.112-.1-.224-.2-.333-.311-.051-.05-.088-.052-.14,0-.141.137-.275.28-.4.429-.054.062-.029.094.017.136.153.141.3.286.458.423.07.062.084.1,0,.169A1.71,1.71,0,0,0-479,417.723Z" transform="translate(503.504 -392.749)" fill="#3c4397"/>
      <path id="Path_14743" data-name="Path 14743" d="M-565.493-221.491c.062.038.06.084.022.14s-.087.026-.131,0c-.227-.112-.455-.22-.678-.34-.092-.049-.125-.017-.163.062-.081.167-.165.332-.257.493-.045.078-.032.113.047.151.222.108.441.223.66.338.055.029.137.041.086.143s-.111.037-.164.011c-.222-.11-.443-.22-.661-.337-.078-.042-.115-.03-.154.048q-.131.264-.277.521c-.047.082-.038.122.052.164.244.115.483.241.723.363.053.027.122.046.079.134s-.1.036-.152.011c-.392-.2-.782-.4-1.176-.589-.1-.05-.106-.094-.055-.189q.437-.808.86-1.624c.054-.1.112-.138.2-.061a.34.34,0,0,0,.41.021,1.4,1.4,0,0,1,.243-.068.194.194,0,0,1,.244.125,1.456,1.456,0,0,1,.116.386l-.039-.009-.045-.018s-.005.006-.008.009l.056.007C-565.654-221.479-565.543-221.531-565.493-221.491Zm-.254-.11c-.18-.351-.18-.351-.537-.251A3.332,3.332,0,0,1-565.747-221.6Z" transform="translate(587.067 223.276)" fill="#3c4397"/>
      <path id="Path_14744" data-name="Path 14744" d="M-1031.193,422.941c.409-.135.773-.246,1.129-.377a.186.186,0,0,1,.241.07c.082.1-.025.131-.06.175-.3.38-.616.746-.9,1.14-.053.074-.084.1-.159.015-.189-.219-.191-.212,0-.438.17-.2.332-.4.525-.641a2.693,2.693,0,0,0-.508.146c-.193.061-.383.131-.574.2-.046.015-.092.051-.141.007s-.012-.105,0-.154c.1-.281.2-.561.3-.842a.315.315,0,0,0,.031-.2c-.264.215-.511.413-.754.616-.059.049-.091.079-.159,0s-.073-.11.017-.174c.4-.285.8-.58,1.2-.869.038-.027.077-.1.139-.036s.13.093.085.209C-1030.915,422.153-1031.042,422.524-1031.193,422.941Z" transform="translate(1035.93 -398.652)" fill="#3c4397"/>
      <path id="Path_14745" data-name="Path 14745" d="M-718.1-256.846c.208,0,.381,0,.554,0,.076,0,.106.055.143.1.171.223.348.442.508.672.084.12.134.1.222.009.193-.2.4-.392.592-.6.107-.117.224-.067.325-.038s0,.08-.025.105c-.256.269-.51.538-.776.8a.457.457,0,0,0-.152.369c.006.213-.017.427-.019.64,0,.1-.023.137-.133.132-.394-.02-.424-.019-.372-.41a1.27,1.27,0,0,0-.361-1.126A7.678,7.678,0,0,1-718.1-256.846Z" transform="translate(732.369 256.847)" fill="#3c4397"/>
      <path id="Path_14746" data-name="Path 14746" d="M-622.882,529.263c-.046-.156-.087-.314-.141-.467-.033-.093-.028-.134.082-.16.255-.06.253-.066.328.191.124.42.247.841.374,1.26.029.094.038.144-.09.167-.245.045-.243.056-.312-.179-.045-.151-.094-.3-.132-.453-.02-.077-.052-.1-.13-.079-.176.056-.353.11-.531.159-.1.027-.1.08-.074.163.06.187.11.377.169.565.026.083.03.127-.079.151-.259.056-.258.064-.334-.191-.125-.419-.245-.84-.376-1.258-.033-.106-.018-.145.1-.17.24-.053.238-.06.309.177,0,.005,0,.011,0,.016.118.395.118.4.509.279.086-.026.171-.054.256-.083C-622.913,529.338-622.861,529.329-622.882,529.263Z" transform="translate(641.581 -502.089)" fill="#3c4397"/>
      <path id="Path_14747" data-name="Path 14747" d="M-964.909,472.856c-.227.327-.429.608-.62.9-.061.092-.1.091-.181.027-.048-.04-.042-.07-.012-.113l.885-1.274c.022-.031.044-.079.091-.048.077.051.169.084.184.2.053.412.112.824.17,1.236.011.076.025.151.043.263.207-.3.4-.569.582-.84.046-.066.073-.13.177-.056s.022.124-.011.173q-.4.584-.807,1.164c-.032.046-.05.141-.12.116a.224.224,0,0,1-.167-.19c-.053-.446-.115-.892-.174-1.338C-964.877,473.02-964.889,472.965-964.909,472.856Z" transform="translate(971.654 -447.723)" fill="#3c4397"/>
      <path id="Path_14748" data-name="Path 14748" d="M-604.879-242.9l.064.019,1.187.376c.063.02.138.022.1.128s-.087.074-.157.054c-.344-.1-.342-.1-.451.24-.148.459-.3.916-.446,1.377-.031.1-.066.12-.167.09-.386-.114-.388-.11-.265-.487.148-.454.292-.908.448-1.359.038-.109.012-.147-.091-.172s-.191-.063-.288-.092c-.06-.018-.062-.053-.044-.1S-604.958-242.917-604.879-242.9Z" transform="translate(623.165 243.374)" fill="#3c4397"/>
      <path id="Path_14749" data-name="Path 14749" d="M-719.682,547.279a.737.737,0,0,1,.783.406,1.086,1.086,0,0,1,.019.946.781.781,0,0,1-.823.462.736.736,0,0,1-.65-.635,1.239,1.239,0,0,1,.005-.568A.757.757,0,0,1-719.682,547.279Zm.545.919a.991.991,0,0,0-.129-.565.359.359,0,0,0-.658.022,1.212,1.212,0,0,0,.011,1.073.359.359,0,0,0,.658.005A.992.992,0,0,0-719.137,548.2Z" transform="translate(734.573 -520.135)" fill="#3c4397"/>
      <path id="Path_14750" data-name="Path 14750" d="M-574.843,513.973c.019.067-.037.061-.068.074-.165.07-.33.141-.5.2-.1.037-.105.083-.067.176.2.487.2.488.665.247l.134-.071c.052-.028.1-.082.136.025.023.072.061.123-.046.167-.286.116-.568.241-.849.37-.092.043-.126.014-.162-.07q-.294-.68-.6-1.355c-.041-.091-.018-.126.067-.162.28-.117.558-.237.834-.363.087-.04.12-.027.161.063.05.11-.026.11-.085.132-.162.063-.324.128-.488.186-.092.032-.1.074-.063.162.164.394.161.4.548.22.066-.03.132-.062.2-.1C-574.911,513.825-574.855,513.853-574.843,513.973Z" transform="translate(595.273 -487.202)" fill="#3c4397"/>
      <path id="Path_14751" data-name="Path 14751" d="M-525.089,500.236c-.118.067-.217.119-.311.179-.046.029-.08.034-.116-.009a.24.24,0,0,0-.024-.024c-.356-.318-.355-.316-.76-.069a.133.133,0,0,0-.074.163,2.062,2.062,0,0,0,.046.231c.053.154.021.255-.171.294-.034-.263-.069-.526-.1-.789-.039-.323-.075-.647-.115-.97a.128.128,0,0,1,.074-.15.119.119,0,0,1,.152.009C-526.028,499.477-525.565,499.851-525.089,500.236Zm-1.354-.63a1.769,1.769,0,0,0,.05.582l.384-.22Z" transform="translate(547.444 -473.554)" fill="#3c4397"/>
      <path id="Path_14752" data-name="Path 14752" d="M-781.094,543.3a2.2,2.2,0,0,0,.381-.5c.085-.138.167-.244.352-.129.014.037-.034.062-.059.095a2.183,2.183,0,0,1-.2.248,1.513,1.513,0,0,0-.475,1.11c0,.133-.041.171-.18.138-.216-.051-.232-.042-.182-.266a1.236,1.236,0,0,0-.112-.908,5.715,5.715,0,0,1-.23-.542c-.035-.083-.018-.119.077-.09a.047.047,0,0,0,.016,0c.3-.027.419.146.471.411A3.455,3.455,0,0,0-781.094,543.3Z" transform="translate(793.935 -515.472)" fill="#3c4397"/>
      <path id="Path_14753" data-name="Path 14753" d="M-672.755,543.984c.093-.023.07.067.086.127.026.1-.046.079-.1.084-.106.009-.213.024-.319.025s-.145.035-.131.15c.051.433.047.433.48.341.068-.014.137-.059.157.069s-.046.113-.123.119c-.1.007-.19.029-.285.029-.131,0-.142.067-.123.173.032.182.054.367.085.55.015.087.007.129-.1.137-.262.018-.265.026-.3-.238-.064-.434-.12-.869-.186-1.3-.017-.109.011-.148.123-.16C-673.254,544.062-673.016,544.021-672.755,543.984Z" transform="translate(689.391 -516.948)" fill="#3c4397"/>
      <path id="Path_14754" data-name="Path 14754" d="M-502.3,481.89c.029.036.058.069.083.105.237.342.477.681.706,1.028.073.11.128.116.218.032s.167-.132.247-.2c.056-.05.092-.052.127.021.024.05.1.087,0,.147-.216.142-.428.29-.638.439-.061.043-.094.034-.135-.026q-.434-.632-.873-1.26c-.046-.065-.027-.095.034-.13C-502.449,482-502.377,481.944-502.3,481.89Z" transform="translate(524.126 -456.954)" fill="#3c4397"/>
      <path id="Path_14755" data-name="Path 14755" d="M-915.95,501.514c-.019.036-.034.066-.051.1-.24.431-.484.86-.72,1.293-.051.092-.087.1-.176.042-.206-.138-.21-.133-.09-.349.21-.377.426-.751.629-1.131.063-.119.117-.166.23-.061C-916.077,501.449-915.99,501.446-915.95,501.514Z" transform="translate(924.618 -475.751)" fill="#3c4397"/>
      <path id="Path_14756" data-name="Path 14756" d="M-982.989,462.18a1.968,1.968,0,0,1-.263-.216c-.046-.052.036-.1.068-.135.3-.374.6-.746.9-1.12.06-.076.1-.119.19-.025.179.178.187.17.026.37l-.825,1.025C-982.926,462.113-982.958,462.145-982.989,462.18Z" transform="translate(988.583 -436.412)" fill="#3c4397"/>
      <path id="Path_14757" data-name="Path 14757" d="M-791.578-182.6c-.082-.015-.139-.06-.134-.143a.141.141,0,0,1,.158-.137.126.126,0,0,1,.132.14C-791.425-182.647-791.492-182.607-791.578-182.6Z" transform="translate(803.495 185.375)" fill="#3c4397"/>
      <path id="Path_14758" data-name="Path 14758" d="M-502.873-209.952c-.018-.061,0-.1.068-.1.089-.009.178-.025.267-.034.04,0,.1-.029.1.05s-.031.089-.094.088c-.09,0-.18,0-.269.006Z" transform="translate(524.412 211.675)" fill="#3c4397"/>
      <path id="Path_14759" data-name="Path 14759" d="M-775.728,121a1.893,1.893,0,0,1-.852,1.443,4.47,4.47,0,0,1-2.035.8,3.917,3.917,0,0,0-1.075.273,1.618,1.618,0,0,0-.513.348.74.74,0,0,0-.05,1.037,1.546,1.546,0,0,0,.5.4.177.177,0,0,1,.113.181c0,.2,0,.4.012.607,0,.1-.036.116-.121.088a3,3,0,0,1-1.26-.72,1.515,1.515,0,0,1-.273-1.8,2.034,2.034,0,0,1,1.073-.978,8.459,8.459,0,0,1,1.858-.473,2.477,2.477,0,0,0,1.016-.381,1.2,1.2,0,0,0-.148-2.144,2,2,0,0,0-.74-.214c-.1-.009-.145-.044-.138-.156.012-.185.009-.371.009-.556,0-.073.014-.117.1-.111a2.742,2.742,0,0,1,2.112,1.029A2.023,2.023,0,0,1-775.728,121Z" transform="translate(793.597 -105.966)" fill="#fafafb"/>
      <path id="Path_14760" data-name="Path 14760" d="M-729.858,28.4a1.176,1.176,0,0,1-.037.234,7.281,7.281,0,0,0-.28,2.316c0,.95-.026,1.9-.035,2.851,0,.121-.026.182-.16.2a2.26,2.26,0,0,0-.444.094c-.129.04-.148,0-.149-.121-.008-.855-.022-1.709-.034-2.564-.007-.484-.015-.967-.022-1.451a5.815,5.815,0,0,0-.257-1.286,1.057,1.057,0,0,1,.01-.614.724.724,0,0,1,.735-.5.747.747,0,0,1,.656.649C-729.867,28.251-729.865,28.3-729.858,28.4Z" transform="translate(745.137 -17.948)" fill="#fafafb"/>
      <path id="Path_14761" data-name="Path 14761" d="M-743.98,333.681a.875.875,0,0,1-.409-1.435,2.045,2.045,0,0,1,1.148-.629,1.972,1.972,0,0,0,.723-.309c.326-.245.349-.594-.01-.774s-.346-.431-.33-.738.006-.3.288-.185a2.145,2.145,0,0,1,.805.541,1.044,1.044,0,0,1-.117,1.6,2.623,2.623,0,0,1-1.233.51,1.369,1.369,0,0,0-.763.364.438.438,0,0,0-.126.488A1.963,1.963,0,0,1-743.98,333.681Z" transform="translate(757.992 -309.748)" fill="#fafafb"/>
      <path id="Path_14762" data-name="Path 14762" d="M-836.833,128.139c-.041-.085-.058-.172-.179-.146a1.489,1.489,0,0,1-.287,0c.131-.073.265-.049.383-.1a2.363,2.363,0,0,0,.557-.483.072.072,0,0,0,.028-.074,1.023,1.023,0,0,1,.186-.732,5.9,5.9,0,0,0,.263-.546,1.084,1.084,0,0,1,.672-.648c.466-.164.941-.3,1.412-.451.072-.023.123-.016.115.078a.673.673,0,0,0,0,.067,1.934,1.934,0,0,1,0,.619c-.063.186-.327.2-.485.324-.134.1-.259.212-.383.327a4.615,4.615,0,0,1-1.607,1.021.414.414,0,0,0-.2.119C-836.525,127.714-836.774,127.845-836.833,128.139Zm1.687-1.985a.152.152,0,0,0-.155-.163.143.143,0,0,0-.162.152.145.145,0,0,0,.152.163A.153.153,0,0,0-835.146,126.154Z" transform="translate(847.544 -112.062)" fill="#fafafb"/>
      <path id="Path_14763" data-name="Path 14763" d="M-720.143,267.826c0-.529,0-1.039,0-1.55-.007-.77-.017-1.54-.034-2.31,0-.127.034-.183.157-.2a3.452,3.452,0,0,0,.41-.093c.122-.036.141.011.139.121-.017.9-.03,1.8-.043,2.7,0,.343-.012.686-.009,1.028,0,.1-.027.15-.13.173C-719.806,267.722-719.955,267.772-720.143,267.826Z" transform="translate(734.376 -246.088)" fill="#fafafb"/>
      <path id="Path_14764" data-name="Path 14764" d="M-693.491,453.149c0,.045,0,.1-.049.114s-.082-.025-.109-.062a.2.2,0,0,1-.032-.059,1.018,1.018,0,0,0-.571-.609.5.5,0,0,1-.093-.45c.025-.029.05-.012.075,0A1.358,1.358,0,0,1-693.491,453.149Z" transform="translate(709.436 -428.138)" fill="#fafafb"/>
      <path id="Path_14765" data-name="Path 14765" d="M-745.774-129.288a2.894,2.894,0,0,1-.6-.416c-.133-.1-.22-.117-.354,0-.2.17-.422.316-.672.5.1-.315.184-.59.282-.86a.168.168,0,0,0-.079-.234,6.145,6.145,0,0,1-.677-.528h.591c.4,0,.4,0,.526-.384.044-.137.093-.273.134-.411.012-.04.018-.082.064-.087.064-.007.042.053.053.085.077.22.162.438.222.662a.155.155,0,0,0,.183.137c.264,0,.529,0,.793,0,.026,0,.056-.011.082.024-.238.172-.472.348-.713.514-.08.055-.111.084-.065.194.092.219.147.454.223.681.016.047,0,.088.007.132Z" transform="translate(761.136 135.938)" fill="#f6e407"/>
      <path id="Path_14766" data-name="Path 14766" d="M-685.672-59.867l0,0,0,0Z" transform="translate(701.034 66.517)" fill="#f6e407"/>
      <path id="Path_14767" data-name="Path 14767" d="M-782.582,155.935a.153.153,0,0,1-.166.152.145.145,0,0,1-.152-.163.143.143,0,0,1,.162-.152A.152.152,0,0,1-782.582,155.935Z" transform="translate(794.979 -141.844)" fill="#3c4397"/>
    </g>
  </g>
</svg>
