<svg xmlns="http://www.w3.org/2000/svg" width="110.25" height="21.084" viewBox="0 0 110.25 21.084"><g transform="translate(0 0)"><path d="M806.271,344.986c0-.972-.024-1.945.006-2.917.037-1.168.187-2.236-1.639-2.123-1.1.068-1.162-1-1.17-1.916-.009-1.07.767-.849,1.317-.783,1.229.146,1.681-.34,1.487-1.527-.259-1.592.42-2.087,2-2.008,2.441.122,2.512.027,2.466,2.073-.025,1.091.238,1.517,1.408,1.471,2.227-.088,4.462-.067,6.691-.008.961.025,1.269-.267,1.275-1.251.013-2.361.247-2.576,2.137-2.593,1.851-.016,2.272.408,2.33,2.647.023.864.235,1.253,1.162,1.192,1.025-.066,2.059-.019,3.088-.014.726,0,1.542-.188,1.464,1.044-.062.981-.32,1.7-1.433,1.735-1.029.031-2.062.056-3.088,0-.9-.049-1.213.291-1.186,1.186.053,1.714.015,3.431.018,5.147.006,3.366.781,4.18,4.191,4.46.7.058,1.682-.355,1.616,1.055-.059,1.256-.667,1.772-1.828,1.727a30.171,30.171,0,0,1-3.927-.274c-3.124-.535-4.542-2.272-4.566-5.433-.017-2.23-.033-4.462.013-6.691.018-.885-.271-1.2-1.176-1.183q-3.516.078-7.035,0c-.931-.022-1.172.333-1.145,1.2.053,1.771.02,3.545.021,5.318,0,3.117.738,3.9,3.835,4.269.78.094,2.14-.572,1.976,1.222-.141,1.549-1.2,1.609-2.343,1.576-.8-.023-1.6-.064-2.394-.14-4.038-.388-5.566-2.056-5.574-6.062C806.27,346.587,806.271,345.787,806.271,344.986Z" transform="translate(-753.594 -332.677)" fill="#fff"/><path d="M896,353.692c-1.827,0-3.657.035-5.483-.015-.9-.025-1.2.249-1.107,1.183a2.8,2.8,0,0,0,2.809,2.869c3.243.373,6.506.079,9.758.183.678.022,1.7-.469,1.678.964-.02,1.225-.575,1.813-1.764,1.793-3.881-.066-7.771.227-11.644-.171-3.278-.337-5-2.066-5.443-5.354a19.675,19.675,0,0,1-.025-4.955c.36-3.059,1.812-4.789,4.82-5.446a24.043,24.043,0,0,1,10.037-.044c3.241.667,4.755,2.741,4.657,6-.058,1.913-.9,2.869-2.811,2.952-1.824.08-3.655.017-5.483.017Zm-6.514-1.783a4.779,4.779,0,0,1,3.542-1c1.716.017,3.433.037,5.149,0,1.405-.032,1.824-.766,1.189-2a3.112,3.112,0,0,0-1.976-1.53,11.419,11.419,0,0,0-4.082-.284C890.254,347.261,889.17,348.544,889.485,351.909Z" transform="translate(-806.879 -339.758)" fill="#fff"/><path d="M754.662,353.645c-1.829,0-3.658.023-5.486-.01-.84-.015-1.082.311-1,1.134a2.811,2.811,0,0,0,2.778,2.911c3.3.4,6.622.08,9.932.191.63.021,1.594-.421,1.571.9-.018,1.079-.411,1.848-1.548,1.84-4.111-.031-8.235.292-12.33-.2a5.391,5.391,0,0,1-4.991-5.241,32.575,32.575,0,0,1,0-5.3,5.18,5.18,0,0,1,3.915-4.889,21.491,21.491,0,0,1,11.508-.125c2.9.748,4.27,2.925,4.089,5.926a2.632,2.632,0,0,1-2.777,2.832c-1.882.081-3.771.018-5.656.018Zm-1.085-2.77c1.262,0,2.293.03,3.322-.007,1.493-.053,1.911-.83,1.171-2.117a2.864,2.864,0,0,0-1.711-1.348,10.926,10.926,0,0,0-5.757-.117,3.824,3.824,0,0,0-2.843,3.619c-.007.437.25,1.056.714.735C750.155,350.478,752.022,351.034,753.577,350.875Z" transform="translate(-714.209 -339.716)" fill="#fff"/><path d="M679.806,344.618l-2.041,3.962c-1.776,3.451-3.591,6.882-5.308,10.362a3.371,3.371,0,0,1-3.419,2.032,3.445,3.445,0,0,1-3.459-1.984c-2.225-4.436-4.54-8.828-6.814-13.239-.178-.345-.318-.71-.485-1.085,3.568-.684,4.513-.209,5.978,2.909q1.895,4.027,3.815,8.043c.239.5.342,1.323.9,1.337.723.018.775-.883,1.032-1.414,1.273-2.617,2.493-5.261,3.739-7.891C675.27,344.432,675.92,344.1,679.806,344.618Z" transform="translate(-658.28 -339.891)" fill="#fff"/><path d="M953.686,341.277c0,1.655,0,3.311,0,4.967.012,3.42.746,4.213,4.136,4.5.777.067,1.8-.294,1.675,1.189-.108,1.294-.833,1.658-1.941,1.61a33.726,33.726,0,0,1-3.752-.256c-3.089-.484-4.564-2.248-4.58-5.389-.021-4.168.04-8.336-.034-12.5-.032-1.784.908-2.043,2.376-2.057,1.53-.014,2.2.538,2.136,2.111C953.626,337.392,953.686,339.336,953.686,341.277Z" transform="translate(-849.259 -332.637)" fill="#fff"/><path d="M727.374,352.762c0,2.112-.031,4.225.009,6.336.029,1.514-.867,1.8-2.108,1.786-1.212-.01-2.4-.039-2.4-1.688q-.025-6.508,0-13.016c.005-1.648,1.153-1.678,2.385-1.683,1.247,0,2.147.244,2.127,1.757C727.353,348.423,727.375,350.592,727.374,352.762Z" transform="translate(-700.676 -339.959)" fill="#fff"/><path d="M722.826,335.553c0-.825.02-1.217,0-1.607-.168-2.8.7-2.786,3.456-2.577.81.061,1.071.747,1.053,1.517a1.281,1.281,0,0,1-1.361,1.42A3.729,3.729,0,0,0,722.826,335.553Z" transform="translate(-700.638 -331.287)" fill="#fff"/></g></svg>