<svg xmlns="http://www.w3.org/2000/svg" width="31.001" height="38.949" viewBox="0 0 31.001 38.949"><path d="M287.865,292.367a21.758,21.758,0,0,1-3.647,7.464,33.675,33.675,0,0,1-3.032,3.6,26.926,26.926,0,0,1-7.569,5.6,14.532,14.532,0,0,0,14.249-16.666Z" transform="translate(-258.635 -279.901)" fill="#fff"/><path d="M249.312,265.471c2.46-3.626,4.241-7.294,4.792-10.241a12.957,12.957,0,0,0,.212-1.866v-.212A2.859,2.859,0,0,0,252.6,250.2a5.607,5.607,0,0,0-3.287.191,16.214,16.214,0,0,0-3.541,1.717,14.471,14.471,0,0,0-20.4,18.4l.021-.021a12.884,12.884,0,0,1-.467-7.549,10.346,10.346,0,0,1,.4-1.484c.042-.127.085-.233.127-.361a4.664,4.664,0,0,1,.339-.721c1.505-3.181,4.177-5.025,6.191-4.092,1.993.933,2.46,4.071.976,7.527-.424.891-1.421,2.8-2.587,4.834-2.9,5.047-5.343,11.619-1.145,12.34a8.422,8.422,0,0,0,4.326-.975C238.859,277.875,245.071,271.726,249.312,265.471Zm0-13.952c2.566-.742,3.5.869,1.505,5.343a9.882,9.882,0,0,0-1.505-1.972,20.478,20.478,0,0,0-2.565-2.205A10.5,10.5,0,0,1,249.312,251.519Z" transform="translate(-223.729 -250.037)" fill="#fff"/><path d="M309.807,365.044l-.018.9h2.172v4.165h1.005v-4.182h2.19v-.88Z" transform="translate(-284.155 -331.175)" fill="#fff"/><path d="M288.713,364.983h-3.428v5.08h1.059v-1.849h1.6l.771-.018c1.6.018,1.9-1.042,1.9-1.58C290.617,366.1,290.347,364.983,288.713,364.983Zm-.108,2.334h-2.262v-1.472h2.262c.628.018.933.359.933.718C289.557,366.994,289.252,367.3,288.606,367.317Z" transform="translate(-266.867 -331.132)" fill="#fff"/><path d="M257.56,368.885l-3.447-3.842h-1.256v5.062h1.005v-3.824l3.465,3.824h1.221v-5.062h-.987Z" transform="translate(-243.989 -331.175)" fill="#fff"/><path d="M225.886,368.987l-2.046-4h-1.1l2.585,5.1h1.077l2.621-5.08h-1.077Z" transform="translate(-222.745 -331.132)" fill="#fff"/></svg>