<svg xmlns="http://www.w3.org/2000/svg" width="36" height="36" viewBox="0 0 36 36"><g transform="translate(-394 -17)"><circle cx="18" cy="18" r="18" transform="translate(394 17)" fill="#fff"/><g transform="translate(400.293 24.821)"><g transform="translate(13.766 1.399)"><g transform="translate(0 0)"><path d="M3975.317-1901.236a1.442,1.442,0,0,0,.744-1.262,1.443,1.443,0,0,0-1.444-1.444,1.444,1.444,0,0,0-1.444,1.444,1.443,1.443,0,0,0,1.106,1.4c.02.9,0,1.743-.048,2.537q.57-.447,1.121-.9C3975.368-1900.37,3975.332-1901.014,3975.317-1901.236Zm-.7-.443a.82.82,0,0,1-.82-.819.819.819,0,0,1,.82-.819.819.819,0,0,1,.819.819A.819.819,0,0,1,3974.617-1901.679Z" transform="translate(-3968.052 1903.942)" fill="#f69f00"/><path d="M3845.384-1718.453l.452,1c4.75-2.092,6.243-7.392,6.682-11.246q-.635.609-1.3,1.212C3849.842-1720.064,3845.384-1718.453,3845.384-1718.453Z" transform="translate(-3845.384 1735.722)" fill="#f69f00"/></g></g><g transform="translate(4.808 3.051)"><g transform="translate(0)"><path d="M3628.743-1862.738a14.009,14.009,0,0,1-6.834,1.6s-.417,5.689,2.179,9.667a33.339,33.339,0,0,0,4.655-2.09Z" transform="translate(-3621.884 1862.738)" fill="#f69f00"/><path d="M3740.186-1548.068v-2.191q-1.086.65-2.206,1.219A7.9,7.9,0,0,0,3740.186-1548.068Z" transform="translate(-3733.326 1562.783)" fill="#f69f00"/></g></g><path d="M3545.953-1938.85c-2.685,1.9-6.648,2.025-7.7,2.022a1.454,1.454,0,0,0-1.157-.574,1.456,1.456,0,0,0-1.456,1.456,1.456,1.456,0,0,0,1.456,1.456,1.456,1.456,0,0,0,1.429-1.176,16.313,16.313,0,0,0,7.432-1.785,20.863,20.863,0,0,0,6.278,1.789v-1.167A18.688,18.688,0,0,1,3545.953-1938.85Zm-8.861,3.73a.826.826,0,0,1-.826-.826.826.826,0,0,1,.826-.826.826.826,0,0,1,.826.826A.826.826,0,0,1,3537.093-1935.12Z" transform="translate(-3534.286 1938.85)" fill="#f69f00"/><g transform="translate(2.334 5.344)"><g transform="translate(0)"><path d="M3678.3-1500.114a1.441,1.441,0,0,0-1.043.447,10.2,10.2,0,0,1-2.635-1.529c-.369.164-.742.318-1.115.466a10.677,10.677,0,0,0,3.354,2.137,1.442,1.442,0,0,0,1.44,1.367,1.444,1.444,0,0,0,1.444-1.444A1.444,1.444,0,0,0,3678.3-1500.114Zm0,2.263a.819.819,0,0,1-.819-.819.819.819,0,0,1,.819-.819.819.819,0,0,1,.819.819A.819.819,0,0,1,3678.3-1497.851Z" transform="translate(-3668.964 1513.395)" fill="#f69f00"/><path d="M3563.457-1796.045a17.385,17.385,0,0,1-2.069-9.49h-1.227a17.741,17.741,0,0,0,2.2,9.775Q3562.906-1795.887,3563.457-1796.045Z" transform="translate(-3560.151 1805.535)" fill="#f69f00"/></g></g><path d="M3527.931-1885.652l-2.813.548,1.363.648c-2.833,2.588-14.09,12.388-22.128,12.429a.6.6,0,0,1-.6-.493c-.055-.36.139-.888,1.248-1.477a7.427,7.427,0,0,1-.654-1.52s-5.992,7.4.9,5.585c10.675-2.807,18.968-11.708,21.267-14.38l.155,1.459Z" transform="translate(-3501.93 1887.784)" fill="#e50019"/><path d="M3793.233-1652.584c3.494-.952,5.221-3.772,6.068-6.555a47.894,47.894,0,0,1-6.068,4.359Z" transform="translate(-3781.557 1670.35)" fill="#e50019"/><path d="M3699.25-1861.135a14.016,14.016,0,0,1-6.835-1.6v3.607h-.008a2.088,2.088,0,0,0-.409.045l-.45-.993a.641.641,0,0,0,.227-.435.646.646,0,0,0-.585-.7.644.644,0,0,0-.7.585.644.644,0,0,0,.584.7.62.62,0,0,0,.135,0l.43.95a2.118,2.118,0,0,0-1.117,1.011l-.77-.433a.753.753,0,0,0,.036-.179.793.793,0,0,0-.734-.848.793.793,0,0,0-.848.734.793.793,0,0,0,.734.848.79.79,0,0,0,.65-.268l.8.453a2.11,2.11,0,0,0-.1.646,2.13,2.13,0,0,0,.05.453l-.949.134a.62.62,0,0,0-.524-.289.622.622,0,0,0-.623.622.623.623,0,0,0,.623.622.623.623,0,0,0,.623-.622.064.064,0,0,0,0-.014l.951-.134a2.113,2.113,0,0,0,.878,1.037l-.408.652a.619.619,0,0,0-.223-.04.622.622,0,0,0-.617.628.622.622,0,0,0,.629.616.621.621,0,0,0,.616-.628.623.623,0,0,0-.138-.381l.437-.7a2.1,2.1,0,0,0,.791.155h.008v1.343a55.607,55.607,0,0,0,6.732-4.342A19.731,19.731,0,0,0,3699.25-1861.135Z" transform="translate(-3680.739 1865.789)" fill="#e50019"/></g></g></svg>