<svg xmlns="http://www.w3.org/2000/svg" xmlns:xlink="http://www.w3.org/1999/xlink" width="230" height="160" viewBox="0 0 230 160"><defs><clipPath id="a"><rect width="230" height="160" transform="translate(93 663)" fill="#fff" stroke="#707070" stroke-width="1" opacity="0.23"/></clipPath></defs><g transform="translate(-93 -663)" clip-path="url(#a)"><g transform="translate(-468 -22.7)"><ellipse cx="115" cy="22.439" rx="115" ry="22.439" transform="translate(561 799.433)" fill="#d6d6d6"/><g transform="translate(0 2.96)"><rect width="50.495" height="48.032" transform="translate(683.984 761.939)" fill="#fff"/><rect width="49.14" height="49.14" rx="7" transform="translate(619 696.74)" fill="#fff" stroke="#ff53cd" stroke-miterlimit="10" stroke-width="5"/><rect width="49.14" height="49.14" rx="7" transform="translate(683.984 696.74)" fill="#fff" stroke="#ff53cd" stroke-miterlimit="10" stroke-width="5"/><rect width="49.14" height="49.14" rx="7" transform="translate(619 761.939)" fill="#fff" stroke="#ff53cd" stroke-miterlimit="10" stroke-width="5"/><g transform="translate(684.898 761.775)"><g transform="translate(0 0)"><path d="M-6718.922,629.17V615.845a1.93,1.93,0,0,1,1.93-1.928h12.93" transform="translate(6718.924 -613.917)" fill="none" stroke="#ff53cd" stroke-linecap="round" stroke-miterlimit="10" stroke-width="5"/><path d="M0,15.253V1.928A1.929,1.929,0,0,1,1.929,0H14.86" transform="translate(49.14 46.348) rotate(180)" fill="none" stroke="#ff53cd" stroke-linecap="round" stroke-miterlimit="10" stroke-width="5"/><path d="M0,15.253V1.928A1.929,1.929,0,0,1,1.929,0H14.86" transform="translate(49.14 0.197) rotate(90)" fill="none" stroke="#ff53cd" stroke-linecap="round" stroke-miterlimit="10" stroke-width="5"/><path d="M0,15.253V1.928A1.929,1.929,0,0,1,1.929,0H14.86" transform="translate(0 46.15) rotate(-90)" fill="none" stroke="#ff53cd" stroke-linecap="round" stroke-miterlimit="10" stroke-width="5"/></g></g></g></g></g></svg>