<svg xmlns="http://www.w3.org/2000/svg" xmlns:xlink="http://www.w3.org/1999/xlink" width="134" height="115" viewBox="0 0 134 115"><defs><clipPath id="a"><rect width="134" height="115" transform="translate(493 1804)" fill="#fff" stroke="#707070" stroke-width="1"/></clipPath><clipPath id="b"><rect width="134" height="115" transform="translate(493 1805)" fill="#fff" stroke="#707070" stroke-width="1"/></clipPath></defs><g transform="translate(-493 -1804)" clip-path="url(#a)"><g clip-path="url(#b)"><g transform="translate(-399.589 -277.109)"><ellipse cx="64.411" cy="12.387" rx="64.411" ry="12.387" transform="translate(895.589 2171.107)" fill="#ececec"/><g transform="translate(-198.502 -2.434)"><rect width="27.557" height="26.213" transform="translate(1163.934 2154.074)" fill="#fff"/><g transform="translate(1127.931 2116.31)"><rect width="26.818" height="26.818" rx="7" transform="translate(0 0)" fill="#fff" stroke="#00cae1" stroke-miterlimit="10" stroke-width="3"/><rect width="26.818" height="26.818" rx="7" transform="translate(36.502 0)" fill="#fff" stroke="#00cae1" stroke-miterlimit="10" stroke-width="3"/><rect width="26.818" height="26.818" rx="7" transform="translate(0 36.914)" fill="#fff" stroke="#00cae1" stroke-miterlimit="10" stroke-width="3"/><g transform="translate(36.502 37.676)"><g transform="translate(0 0)"><path d="M-6718.922,622.241v-7.272a1.054,1.054,0,0,1,1.053-1.052h7.057" transform="translate(6718.923 -613.917)" fill="none" stroke="#00cae1" stroke-linecap="round" stroke-miterlimit="10" stroke-width="3"/><path d="M0,8.324V1.052A1.053,1.053,0,0,1,1.053,0H8.11" transform="translate(26.817 25.294) rotate(180)" fill="none" stroke="#00cae1" stroke-linecap="round" stroke-miterlimit="10" stroke-width="3"/><path d="M0,8.324V1.052A1.053,1.053,0,0,1,1.053,0H8.11" transform="translate(26.817 0.108) rotate(90)" fill="none" stroke="#00cae1" stroke-linecap="round" stroke-miterlimit="10" stroke-width="3"/><path d="M0,8.324V1.052A1.053,1.053,0,0,1,1.053,0H8.11" transform="translate(0 25.186) rotate(-90)" fill="none" stroke="#00cae1" stroke-linecap="round" stroke-miterlimit="10" stroke-width="3"/></g></g></g><g transform="translate(1171.012 2158.788)"><path d="M326.054,291.79a6.7,6.7,0,0,0-6.7,6.7c0,5.026,6.7,10.085,6.7,10.085s6.7-5.059,6.7-10.085A6.7,6.7,0,0,0,326.054,291.79Zm0,9.094a2.393,2.393,0,1,1,2.393-2.393A2.394,2.394,0,0,1,326.054,300.884Z" transform="translate(-319.353 -291.79)" fill="#adadad"/><ellipse cx="3.82" cy="3.82" rx="3.82" ry="3.82" transform="translate(2.881 3.172)" fill="#fff"/></g><rect width="7.64" height="7.64" rx="3.82" transform="translate(1173.765 2126.355)" fill="#00cae1"/><rect width="7.64" height="7.64" rx="3.82" transform="translate(1137.746 2126.355)" fill="#00cae1"/><rect width="7.64" height="7.64" rx="3.82" transform="translate(1137.746 2163.465)" fill="#00cae1"/></g></g></g></g></svg>