<svg xmlns="http://www.w3.org/2000/svg" xmlns:xlink="http://www.w3.org/1999/xlink" width="230" height="160" viewBox="0 0 230 160"><defs><clipPath id="a"><rect width="230" height="160" transform="translate(58 1138)" fill="#fff" stroke="#707070" stroke-width="1" opacity="0.35"/></clipPath></defs><g transform="translate(-58 -1138)" clip-path="url(#a)"><g transform="translate(-480.792 -141.326)"><ellipse cx="98.642" cy="19.247" rx="98.642" ry="19.247" transform="translate(555.149 1400.505)" fill="#d6d6d6"/><g transform="translate(-5640.175 -556.505)"><g transform="translate(6228.916 1840.83)"><g transform="translate(0 0)"><path d="M77.1,101.192H14a14,14,0,0,1-14-14V14A14,14,0,0,1,14,0H116.1a14,14,0,0,1,14,14V87.192a14,14,0,0,1-14,14H101.112L77.1,121.92Z" transform="translate(0 0)" fill="#fff" stroke="#448aff" stroke-width="5"/><line x2="62.642" transform="translate(28.913 31.61)" fill="none" stroke="#40bfe6" stroke-width="5"/><line x2="48.186" transform="translate(28.913 50.596)" fill="none" stroke="#40bfe6" stroke-width="5"/></g></g></g></g></g></svg>