<svg xmlns="http://www.w3.org/2000/svg" xmlns:xlink="http://www.w3.org/1999/xlink" width="103.925" height="35.278" viewBox="0 0 103.925 35.278">
  <defs>
    <clipPath id="clip-path">
      <path id="Path_16189" data-name="Path 16189" d="M145.314,335.69l-3.28-1.894-6.327-3.654c-.351-.2-.7-.08-.7.344V345.37c0,.318.25.458.556.275l6.472-3.738,3.28-1.894,3.153-1.82c.366-.214.334-.507.022-.675S145.314,335.69,145.314,335.69Z" transform="translate(-135.006 -330.048)" fill="none"/>
    </clipPath>
    <linearGradient id="linear-gradient" x1="0.5" x2="0.5" y2="1" gradientUnits="objectBoundingBox">
      <stop offset="0" stop-color="#2281b1"/>
      <stop offset="0.321" stop-color="#37abbc"/>
      <stop offset="0.778" stop-color="#53e2cb"/>
      <stop offset="1" stop-color="#5ff8d1"/>
    </linearGradient>
    <linearGradient id="linear-gradient-2" y1="0.5" x2="1" y2="0.5" gradientUnits="objectBoundingBox">
      <stop offset="0" stop-color="#5acaac"/>
      <stop offset="1" stop-color="#bbf4a3"/>
    </linearGradient>
    <linearGradient id="linear-gradient-3" x1="0.5" x2="0.5" y2="1" gradientUnits="objectBoundingBox">
      <stop offset="0" stop-color="#da3f5b"/>
      <stop offset="0.076" stop-color="#d43e62"/>
      <stop offset="0.699" stop-color="#ae3899"/>
      <stop offset="1" stop-color="#9f36af"/>
    </linearGradient>
    <linearGradient id="linear-gradient-4" x1="0.5" x2="0.5" y2="1" gradientUnits="objectBoundingBox">
      <stop offset="0" stop-color="#ffa176"/>
      <stop offset="0.41" stop-color="#ffb275"/>
      <stop offset="1" stop-color="#ffc874"/>
    </linearGradient>
  </defs>
  <g id="Group_8513" data-name="Group 8513" transform="translate(0.25 0.25)">
    <path id="Path_16178" data-name="Path 16178" d="M200.06,965.9a4.637,4.637,0,0,1-4.571,4.7H101.212a4.637,4.637,0,0,1-4.576-4.7V940.525a4.637,4.637,0,0,1,4.576-4.7h94.277a4.636,4.636,0,0,1,4.571,4.7Z" transform="translate(-96.636 -935.825)" stroke="#fff" stroke-width="0.5"/>
    <g id="Group_7775" data-name="Group 7775" transform="translate(24.711 15.31)">
      <path id="Path_16179" data-name="Path 16179" d="M382.1,374.649a2.427,2.427,0,0,1-.194,4.128,1.048,1.048,0,0,0-.417.732.817.817,0,0,0,.388.641l.536.416a2.6,2.6,0,0,1,1.251,2.087c0,1.4-1.356,2.816-3.918,2.816-2.161,0-3.2-1.028-3.2-2.132a2.144,2.144,0,0,1,1.149-1.824,6.423,6.423,0,0,1,2.845-.685,1.556,1.556,0,0,1-.448-1.012,1.346,1.346,0,0,1,.149-.582c-.165.016-.329.03-.478.03a2.356,2.356,0,0,1-2.471-2.339,2.681,2.681,0,0,1,.954-2,4.064,4.064,0,0,1,2.668-.824h3.069l-.954.536Zm-1.058,6.616a2.3,2.3,0,0,0-.342-.016,5.962,5.962,0,0,0-1.565.24,1.674,1.674,0,0,0-1.281,1.535c0,1.057,1.029,1.819,2.623,1.819,1.43,0,2.19-.686,2.19-1.61,0-.762-.49-1.163-1.625-1.969Zm.432-2.832a1.508,1.508,0,0,0,.372-1.088c0-1.073-.641-2.746-1.876-2.746a1.392,1.392,0,0,0-1.043.491,1.722,1.722,0,0,0-.328,1.1c0,1,.581,2.654,1.863,2.654a1.526,1.526,0,0,0,1.012-.41Z" transform="translate(-349.581 -370.201)" fill="#f9f9f9"/>
      <path id="Path_16180" data-name="Path 16180" d="M345.7,380.26a3.511,3.511,0,0,1-3.63-3.512,3.686,3.686,0,0,1,3.854-3.614,3.478,3.478,0,0,1,3.555,3.511,3.635,3.635,0,0,1-3.779,3.615Zm1.86-1.2a2.692,2.692,0,0,0,.447-1.647c0-1.31-.624-3.808-2.471-3.808a2.073,2.073,0,0,0-1.339.506,2.25,2.25,0,0,0-.685,1.816c0,1.472.732,3.9,2.53,3.9a1.9,1.9,0,0,0,1.517-.767Z" transform="translate(-322.563 -369.435)" fill="#f9f9f9"/>
      <path id="Path_16181" data-name="Path 16181" d="M308.406,380.26a3.511,3.511,0,0,1-3.63-3.512,3.686,3.686,0,0,1,3.854-3.614,3.478,3.478,0,0,1,3.555,3.511,3.635,3.635,0,0,1-3.779,3.615Zm1.86-1.2a2.7,2.7,0,0,0,.447-1.647c0-1.31-.625-3.808-2.471-3.808a2.073,2.073,0,0,0-1.339.506,2.25,2.25,0,0,0-.685,1.816c0,1.472.732,3.9,2.53,3.9a1.9,1.9,0,0,0,1.518-.767Z" transform="translate(-293.33 -369.435)" fill="#f9f9f9"/>
      <path id="Path_16182" data-name="Path 16182" d="M262.16,367.819l-2.139.493a15.852,15.852,0,0,1-2.471.254,5.315,5.315,0,0,1-5.7-5.414c0-2.9,2.229-5.593,6.04-5.593a8.609,8.609,0,0,1,2.288.314,5.831,5.831,0,0,1,1.974.927l-1.242,1.182-.523.119.373-.6a4.275,4.275,0,0,0-3.2-1.4,4.131,4.131,0,0,0-4.143,4.412,5.289,5.289,0,0,0,5.295,5.458,4.454,4.454,0,0,0,1.9-.374v-2.408l-2.258.12,1.2-.641h3.171l-.388.373a.349.349,0,0,0-.15.239c-.016.135-.029.569-.029.718Z" transform="translate(-251.851 -357.228)" fill="#f9f9f9"/>
      <path id="Path_16183" data-name="Path 16183" d="M412.6,366.182c-.494-.045-.6-.135-.6-.718V357c0-.032.005-.065.008-.1.06-.523.21-.613.674-.882h-2.14l-1.122.538h1.143v9.236c0,.3-.059.344-.4.793h2.648l.549-.329C413.107,366.226,412.852,366.211,412.6,366.182Z" transform="translate(-375.351 -356.02)" fill="#f9f9f9"/>
      <path id="Path_16184" data-name="Path 16184" d="M432.611,379.751c-.163.091-.326.194-.489.267a3.459,3.459,0,0,1-1.442.283,3.173,3.173,0,0,1-1.976-.579,3.844,3.844,0,0,1-1.515-3.135,3.366,3.366,0,0,1,3.4-3.43,2.887,2.887,0,0,1,1.53.416,2.459,2.459,0,0,1,1.039,1.47l-3.49,1.411-1.144.092a3.3,3.3,0,0,0,3.06,2.984,3.839,3.839,0,0,0,1.812-.519Zm-1.4-4.427c.282-.1.43-.193.43-.4a1.474,1.474,0,0,0-1.471-1.281,1.83,1.83,0,0,0-1.708,2.065c0,.253.029.52.045.788Z" transform="translate(-389.278 -369.452)" fill="#f9f9f9"/>
    </g>
    <g id="Group_7777" data-name="Group 7777" transform="translate(8.242 14.007)">
      <g id="Group_7776" data-name="Group 7776" clip-path="url(#clip-path)">
        <path id="Path_16185" data-name="Path 16185" d="M135.006,328.285V344.4l8.126-8.054Z" transform="translate(-135.006 -328.536)" fill="url(#linear-gradient)"/>
        <path id="Path_16186" data-name="Path 16186" d="M145.314,333.825l-3.28-1.894-7.028-4.058v.059l8.126,8.054Z" transform="translate(-135.006 -328.183)" fill="url(#linear-gradient-2)"/>
        <path id="Path_16187" data-name="Path 16187" d="M135.006,392.995v.059L142.034,389l3.28-1.894-2.183-2.164Z" transform="translate(-135.006 -377.132)" fill="url(#linear-gradient-3)"/>
        <path id="Path_16188" data-name="Path 16188" d="M194.322,369.721l-2.183,2.164,2.183,2.164,3.752-2.164Z" transform="translate(-184.014 -364.078)" fill="url(#linear-gradient-4)"/>
      </g>
    </g>
    <path id="Path_16190" data-name="Path 16190" d="M4.467-.838a3.368,3.368,0,0,1-1.673.446,2.5,2.5,0,0,1-1-.193,2.168,2.168,0,0,1-.752-.533,2.349,2.349,0,0,1-.477-.815A3.128,3.128,0,0,1,.395-2.975,3.186,3.186,0,0,1,.476-3.7a2.822,2.822,0,0,1,.235-.651A2.5,2.5,0,0,1,1.091-4.9a2.38,2.38,0,0,1,.516-.426A2.478,2.478,0,0,1,2.248-5.6,2.831,2.831,0,0,1,3-5.7a3.245,3.245,0,0,1,1.358.275V-4.9a2.874,2.874,0,0,0-1.416-.366,2.031,2.031,0,0,0-.847.172,1.9,1.9,0,0,0-.645.472,2.147,2.147,0,0,0-.413.709,2.677,2.677,0,0,0-.15.889,2.832,2.832,0,0,0,.124.878,1.97,1.97,0,0,0,.377.7,1.726,1.726,0,0,0,.619.458,2.068,2.068,0,0,0,.851.165A2.252,2.252,0,0,0,3.991-1.1V-2.661H2.826v-.433H4.467Zm1.187.354V-5.609h2.5v.437H6.129v1.879H8v.43H6.129V-.916H8.27v.433Zm5.163-4.69v4.69h-.476v-4.69H8.863v-.435H12.3v.437Zm4.8,4.69h-.476V-5.609h.476Zm2.8-4.69v4.69h-.476v-4.69H16.468v-.435H19.9v.437ZM24.836-.392a2.38,2.38,0,0,1-1-.2,2.215,2.215,0,0,1-.752-.549,2.462,2.462,0,0,1-.476-.824,3.05,3.05,0,0,1-.167-1.017,3.46,3.46,0,0,1,.167-1.1,2.4,2.4,0,0,1,.484-.855,2.2,2.2,0,0,1,.78-.554,2.637,2.637,0,0,1,1.053-.21,2.351,2.351,0,0,1,.976.195,2.139,2.139,0,0,1,.732.54,2.407,2.407,0,0,1,.47.821,3.129,3.129,0,0,1,.163,1.026,3.541,3.541,0,0,1-.159,1.079,2.486,2.486,0,0,1-.469.863,2.169,2.169,0,0,1-.761.572,2.476,2.476,0,0,1-1.043.212Zm.039-4.869a1.841,1.841,0,0,0-.824.177,1.8,1.8,0,0,0-.606.479,2.094,2.094,0,0,0-.373.707,2.954,2.954,0,0,0-.131.863,2.883,2.883,0,0,0,.113.835,2.122,2.122,0,0,0,.351.7A1.715,1.715,0,0,0,24-1.008a1.819,1.819,0,0,0,.837.183,2,2,0,0,0,.842-.167,1.679,1.679,0,0,0,.606-.458,2,2,0,0,0,.366-.7,3.061,3.061,0,0,0,.124-.891,3.266,3.266,0,0,0-.109-.855,2.013,2.013,0,0,0-.34-.706,1.647,1.647,0,0,0-.588-.479,1.916,1.916,0,0,0-.856-.182Zm6.93,4.777L28.959-4.6q-.054-.079-.105-.161a1.045,1.045,0,0,1-.084-.161h-.018q.007.064.013.183t.005.286V-.483h-.476V-5.609h.525l2.8,4.064q.064.1.116.183l.092.156h.018q-.015-.118-.021-.264T31.817-1.8V-5.609H32.3V-.483Z" transform="translate(24.321 10.551)" fill="#fff"/>
    <text id="play" transform="translate(70.477 23.983)" fill="#fff" font-size="12" font-family="SegoeUI-Semilight, Segoe UI" font-weight="300"><tspan x="0" y="0">play</tspan></text>
  </g>
</svg>
