<svg xmlns="http://www.w3.org/2000/svg" xmlns:xlink="http://www.w3.org/1999/xlink" width="134" height="115" viewBox="0 0 134 115"><defs><clipPath id="a"><rect width="134" height="115" transform="translate(139 2491)" fill="#fff" stroke="#707070" stroke-width="1" opacity="0.42"/></clipPath></defs><g transform="translate(-139 -2491)" clip-path="url(#a)"><g transform="translate(-754.411 409.818)"><ellipse cx="64.411" cy="12.387" rx="64.411" ry="12.387" transform="translate(895.589 2171.107)" fill="#ececec"/><g transform="translate(929.78 2097.484)"><path d="M2759.442,102.362c.345.021.691.039,1.036.064,1.018.072,1.353-.234,1.454-1.255.032-.324-.156-.374-.365-.488a.928.928,0,0,1-.475-1.244.941.941,0,0,1,1.2-.586c.7.162,1.406.335,2.094.551a.936.936,0,0,1,.7,1.066.876.876,0,0,1-.936.844c-.909-.017-.608.735-.787,1.168-.21.5.193.64.549.785a9.351,9.351,0,0,1,2.4,1.376c.382.312.674.291.932-.09.229-.338,1-.428.488-1.129a.878.878,0,0,1,.214-1.3.93.93,0,0,1,1.272.058,21.133,21.133,0,0,1,1.542,1.521.944.944,0,0,1,.071,1.274.879.879,0,0,1-1.228.285c-.754-.446-.81.385-1.178.624-.427.276-.184.575.046.864a9.34,9.34,0,0,1,1.483,2.532c.222.589.6.407.976.3.352-.1.864,0,.748-.671a.9.9,0,0,1,.791-1.141.967.967,0,0,1,1.148.812c.195.694.393,1.387.568,2.086a.9.9,0,0,1-.489,1.1.884.884,0,0,1-1.233-.28c-.458-.788-.959-.168-1.416-.091-.544.091-.274.525-.247.838a12.944,12.944,0,0,1,.016,2.684c-.065.519.055.8.6.934.441.108.777.291,1.015-.333a.841.841,0,0,1,1.159-.467.922.922,0,0,1,.648,1.093c-.156.762-.369,1.512-.586,2.26a.9.9,0,0,1-.982.689.885.885,0,0,1-.9-.893c.033-.834-.615-.591-1-.746-.493-.2-.571.215-.7.531a9.718,9.718,0,0,1-1.441,2.558c-.33.4-.214.658.111.939.26.222.408.658.891.244a.88.88,0,0,1,1.316.122.931.931,0,0,1-.018,1.335c-.505.555-1.031,1.092-1.581,1.6a.931.931,0,0,1-1.269.092.879.879,0,0,1-.25-1.295c.386-.571-.2-.666-.407-.945-.272-.365-.531-.195-.8.024a10.068,10.068,0,0,1-2.678,1.581.567.567,0,0,0-.4.8c.094.371.137.717.7.643a.868.868,0,0,1,.982.785.926.926,0,0,1-.641,1.1,9.63,9.63,0,0,1-2.251.6.9.9,0,0,1-1.052-.572.861.861,0,0,1,.377-1.2c.526-.237.349-.544.251-.9a.571.571,0,0,0-.75-.483,9.685,9.685,0,0,1-3.106.025c-.47-.077-.649.112-.8.543-.155.45-.029.571.373.738a.847.847,0,0,1,.464,1.1.916.916,0,0,1-.941.75,7.035,7.035,0,0,1-2.671-.664.852.852,0,0,1-.45-1.031.829.829,0,0,1,.847-.734c.633.067.689-.3.794-.746.138-.575-.306-.588-.628-.731a11.067,11.067,0,0,1-2.531-1.5c-.294-.24-.537-.324-.8,0-.209.257-.692.383-.32.889a.861.861,0,0,1-.187,1.239.927.927,0,0,1-1.335-.049c-.507-.472-1-.963-1.477-1.462a.885.885,0,0,1-.067-1.258.847.847,0,0,1,1.225-.249c.552.383.684-.14.96-.367.355-.293.152-.546-.053-.81a10.634,10.634,0,0,1-1.5-2.624c-.148-.372-.311-.634-.752-.448-.319.136-.858-.023-.789.66a.88.88,0,0,1-.861,1,.924.924,0,0,1-1.048-.722c-.221-.715-.424-1.439-.576-2.172a.882.882,0,0,1,.608-1.1.866.866,0,0,1,1.175.45c.278.681.693.266,1.067.2.457-.081.488-.393.414-.78a8.9,8.9,0,0,1,0-2.935c.046-.319.137-.673-.334-.735-.4-.052-.83-.541-1.2.113a.906.906,0,0,1-1.278.368.934.934,0,0,1-.507-1.166c.177-.67.323-1.348.518-2.012a.942.942,0,0,1,1.032-.75.909.909,0,0,1,.9.982c-.061.827.581.607.977.769.511.209.564-.2.7-.508a10.156,10.156,0,0,1,1.508-2.521c.3-.35.28-.62-.066-.853-.321-.216-.4-.959-1.061-.487a.876.876,0,0,1-1.3-.208.915.915,0,0,1,.05-1.268c.5-.56,1.024-1.1,1.574-1.608a.932.932,0,0,1,1.334-.061.9.9,0,0,1,.155,1.317c-.464.617.2.713.421,1,.247.321.525.488.938.145a8.947,8.947,0,0,1,2.616-1.508.52.52,0,0,0,.34-.8c-.158-.36.112-1.031-.661-.983a.907.907,0,0,1-1.065-.785.967.967,0,0,1,.787-1.168c.661-.2,1.33-.379,2-.547a.915.915,0,0,1,1.16.509.882.882,0,0,1-.392,1.265c-.685.3-.252.707-.162,1.063.093.379.171.806.774.691A12.7,12.7,0,0,1,2759.442,102.362Zm1.661,11.606a2.593,2.593,0,1,0,5.184.1,2.593,2.593,0,0,0-5.184-.1Zm-3.126,2.854a1.961,1.961,0,0,0-2.014-1.945,2,2,0,0,0-1.905,1.98,1.96,1.96,0,0,0,3.919-.035Zm.5-7.521a1.364,1.364,0,1,0-1.428,1.308A1.387,1.387,0,0,0,2758.476,109.3Z" transform="translate(-2732.037 -98.814)" fill="#ff53cd"/><g transform="translate(0 29.364)"><g transform="translate(0 36.65)"><rect width="11.646" height="15.609" rx="2.15" fill="#ff53cd"/></g><g transform="translate(15.365 25.835)"><rect width="11.646" height="26.424" rx="2.15" fill="#ff53cd"/></g><g transform="translate(31.024 32.49)"><rect width="11.646" height="19.769" rx="2.15" transform="translate(0)" fill="#ff53cd"/></g><g transform="translate(46.291 21.039)"><rect width="11.646" height="31.219" rx="2.15" transform="translate(0 0)" fill="#ff53cd"/></g><g transform="translate(0.147 3.05)"><path d="M2510.908,445.416a1.864,1.864,0,0,1-1.516-.541,2.2,2.2,0,0,1,.333-3.254l20.194-13s2.49-.718,3.432.062l11.883,10.614,17.97-17.109s2.478-.953,3.516-.2a1.849,1.849,0,0,1,.234,2.934l-19.717,18.776a2.717,2.717,0,0,1-1.787.709,2.774,2.774,0,0,1-1.844-.6L2531.52,433.03l-18.937,11.844A2.774,2.774,0,0,1,2510.908,445.416Z" transform="translate(-2508.813 -421.703)" fill="#ff53cd"/></g><g transform="translate(50.305)"><path d="M2571.7,417.057l-10.961,1.077,10.178,9.787Z" transform="translate(-2560.741 -417.057)" fill="#ff53cd"/></g></g></g></g></g></svg>