<svg xmlns="http://www.w3.org/2000/svg" xmlns:xlink="http://www.w3.org/1999/xlink" width="230" height="160" viewBox="0 0 230 160"><defs><clipPath id="a"><rect width="230" height="160" transform="translate(61 1479)" fill="#fff" stroke="#707070" stroke-width="1" opacity="0.58"/></clipPath></defs><g transform="translate(-61 -1479)" clip-path="url(#a)"><g transform="translate(-1084 194)"><ellipse cx="115" cy="22.439" rx="115" ry="22.439" transform="translate(1145 1399.286)" fill="#d6d6d6"/><rect width="50.495" height="48.032" transform="translate(1267.984 1361.792)" fill="#fff"/><g transform="translate(0 5)"><rect width="49.14" height="49.14" rx="7" transform="translate(1202.013 1287.593)" fill="#fff" stroke="#00cae1" stroke-miterlimit="10" stroke-width="5"/><rect width="49.14" height="49.14" rx="7" transform="translate(1268.898 1287.593)" fill="#fff" stroke="#00cae1" stroke-miterlimit="10" stroke-width="5"/><rect width="49.14" height="49.14" rx="7" transform="translate(1202.013 1355.233)" fill="#fff" stroke="#00cae1" stroke-miterlimit="10" stroke-width="5"/><g transform="translate(1268.898 1356.629)"><g transform="translate(0 0)"><path d="M-6718.922,629.17V615.845a1.93,1.93,0,0,1,1.93-1.928h12.93" transform="translate(6718.924 -613.917)" fill="none" stroke="#00cae1" stroke-linecap="round" stroke-miterlimit="10" stroke-width="5"/><path d="M0,15.253V1.928A1.929,1.929,0,0,1,1.929,0H14.86" transform="translate(49.14 46.348) rotate(180)" fill="none" stroke="#00cae1" stroke-linecap="round" stroke-miterlimit="10" stroke-width="5"/><path d="M0,15.253V1.928A1.929,1.929,0,0,1,1.929,0H14.86" transform="translate(49.14 0.197) rotate(90)" fill="none" stroke="#00cae1" stroke-linecap="round" stroke-miterlimit="10" stroke-width="5"/><path d="M0,15.253V1.928A1.929,1.929,0,0,1,1.929,0H14.86" transform="translate(0 46.15) rotate(-90)" fill="none" stroke="#00cae1" stroke-linecap="round" stroke-miterlimit="10" stroke-width="5"/></g></g></g><g transform="translate(-4858.556 408.637)"><path d="M331.631,291.79a12.28,12.28,0,0,0-12.278,12.278c0,9.209,12.278,18.479,12.278,18.479s12.278-9.27,12.278-18.479A12.28,12.28,0,0,0,331.631,291.79Zm0,16.663a4.385,4.385,0,1,1,4.385-4.385A4.387,4.387,0,0,1,331.631,308.453Z" transform="translate(5820.156 670.002)" fill="#adadad"/><ellipse cx="7" cy="7" rx="7" ry="7" transform="translate(6144.787 967.604)" fill="#fff"/></g><rect width="14" height="14" rx="4" transform="translate(1286 1311)" fill="#00cae1"/><rect width="14" height="14" rx="4" transform="translate(1220 1311)" fill="#00cae1"/><rect width="14" height="14" rx="4" transform="translate(1220 1379)" fill="#00cae1"/></g></g></svg>