<svg xmlns="http://www.w3.org/2000/svg" xmlns:xlink="http://www.w3.org/1999/xlink" width="134" height="115" viewBox="0 0 134 115"><defs><clipPath id="a"><rect width="134" height="115" transform="translate(893 2082)" fill="#fff" stroke="#707070" stroke-width="1"/></clipPath></defs><g transform="translate(-893 -2082)" clip-path="url(#a)"><ellipse cx="64.411" cy="12.387" rx="64.411" ry="12.387" transform="translate(895.589 2171.107)" fill="#ececec"/><g transform="translate(-3310.269 -99.461)"><rect width="47" height="83" rx="5" transform="translate(4247.269 2199.461)" fill="#616161"/><rect width="43" height="77" rx="3" transform="translate(4249.269 2203.461)" fill="#fff"/><g transform="translate(4255.165 2215.764)"><path d="M-3189.718-1281.469v-2.976l0,0h1.48v-1.49h-1.48l0,0q0-.745,0-1.49h2.98v-1.478h1.483v1.471h1.488v-2.966l0,0,.528,0,3.935,0v1.481h1.477v-1.477h-1.479v-1.495h-2.976v-2.959h-4.462v1.483h-2.96v2.975h1.473v1.484h-1.478v1.486h-1.486v-1.486h-4.453v-1.484h4.444v-11.9h1.495l0,0v4.453h1.487v-2.958h1.483v2.969h1.494l0,0v1.485h7.43v1.484h1.49v1.495l0,0h-1.48v1.49h1.48l0,0v2.977h1.49l0,0v2.97h-1.477v2.981h1.48l0,0v1.486h2.968v1.483h-4.45v2.972h-1.484v-1.482h-2.98l0,0v-1.486h-1.482v-1.484h2.959v-1.486h-7.419v1.478h-2.981Zm8.917-4.459v-1.481h-1.476v1.477h1.479v1.48h2.962v-1.477Zm-2.977.006h-1.472v1.472h1.472Zm2.984-7.45h1.472v-1.472h-1.472Z" transform="translate(3203.094 1308.224)" fill="#30b55c"/><path d="M-3490.8-1527.558v-10.39h10.39v10.39Zm1.489-8.906v7.419h7.419v-7.419Z" transform="translate(3490.801 1537.949)" fill="#30b55c"/><path d="M-2654.355-1527.413h-10.39v-10.39h10.39Zm-1.482-8.906h-7.418v7.418h7.418Z" transform="translate(2685.561 1537.807)" fill="#30b55c"/><path d="M-3490.667-711.993h10.39v10.39h-10.39Zm8.905,1.489h-7.419v7.419h7.419Z" transform="translate(3490.671 732.806)" fill="#30b55c"/><path d="M-3017.258-1531.886v-2.973h-1.48v-2.966h7.417v2.959h-1.469v1.489h1.471v2.966h-1.475v-1.471h-1.488v-1.486h-1.485v1.479h-1.495Zm1.491-2.984h1.472v-1.472h-1.472Z" transform="translate(3030.634 1537.828)" fill="#30b55c"/><path d="M-3483.212-1007.293v1.485h2.968v1.483h-4.45v2.972h-5.939v-2.958h1.473v1.469h2.98v-4.453l0,0h2.977Z" transform="translate(3490.637 1020.665)" fill="#30b55c"/><path d="M-3017.158-476.332v1.486h1.483v1.484h1.482v1.485h-4.44v-4.451h1.478Z" transform="translate(3030.531 503.083)" fill="#30b55c"/><path d="M-3486.322-1064.372h-2.972v1.48h-1.484v-2.955h4.453v1.479Z" transform="translate(3490.779 1077.743)" fill="#30b55c"/><path d="M-2366.753-1061.522h-1.473v-2.962h-1.482v-1.485h2.956Z" transform="translate(2397.958 1077.862)" fill="#30b55c"/><path d="M-3196.129-1064.378v-1.48h2.963v1.476h-2.967Z" transform="translate(3203.558 1077.754)" fill="#30b55c"/><path d="M-2370.132-828.366v-1.479h1.477v1.476h-1.48Z" transform="translate(2398.375 847.688)" fill="#30b55c"/><path d="M-2310.756-711.991h1.47v1.472h-1.47Z" transform="translate(2340.491 732.804)" fill="#30b55c"/><path d="M-2783.129-1182.364v-1.48h1.476v1.476h-1.48Z" transform="translate(2800.965 1192.767)" fill="#30b55c"/><path d="M-3017.188-651.819h-1.479V-653.3h1.479l0,0v1.49Z" transform="translate(3030.564 675.598)" fill="#30b55c"/><path d="M-2370.132-592.366v-1.479h1.477v1.475h-1.48Z" transform="translate(2398.375 617.635)" fill="#30b55c"/><path d="M-2429.129-948.3h1.479v1.483h-1.479l0,0v-1.49Z" transform="translate(2455.881 963.164)" fill="#30b55c"/><path d="M-2781.293-415.352h-1.47v-1.47h1.47Z" transform="translate(2800.604 445.073)" fill="#30b55c"/><path d="M-2663.213-358.331v1.479h-1.476v-1.476h1.48Z" transform="translate(2685.506 388.055)" fill="#30b55c"/><path d="M-2309.287-356.346h-1.47v-1.47h1.47Z" transform="translate(2340.492 387.553)" fill="#30b55c"/><path d="M-2781.173-887.4h-1.479v-1.477h1.475v1.48Z" transform="translate(2800.497 905.237)" fill="#30b55c"/><path d="M-3368.324-1415.384h-4.443v-4.443h4.443Z" transform="translate(3375.742 1422.803)" fill="#30b55c"/><path d="M-2546.8-1415.505v-4.444h4.443v4.444Z" transform="translate(2570.589 1422.922)" fill="#30b55c"/><path d="M-3372.805-589.5v-4.443h4.443v4.443Z" transform="translate(3375.779 617.731)" fill="#30b55c"/></g><rect width="6" height="1" rx="0.5" transform="translate(4267.269 2200.461)" fill="#565656"/></g></g></svg>