<svg xmlns="http://www.w3.org/2000/svg" width="90.533" height="25.698" viewBox="0 0 90.533 25.698"><g transform="translate(0 0)"><path d="M226.217,556.734a.509.509,0,0,0,.051-.534.419.419,0,0,0-.169-.155.492.492,0,0,0-.2-.069,1.929,1.929,0,0,0-.276-.016h-.616v1.683h.4v-.619h.162l.492.619h.5l-.609-.724A.7.7,0,0,0,226.217,556.734Zm-.361-.151a.173.173,0,0,1-.07.078.214.214,0,0,1-.114.049.818.818,0,0,1-.166.018h-.1v-.475h.122a1.056,1.056,0,0,1,.143.007.292.292,0,0,1,.1.032.185.185,0,0,1,.077.072.267.267,0,0,1,.021.1A.374.374,0,0,1,225.856,556.583Zm.995-.934a1.686,1.686,0,1,0,.5,1.2A1.62,1.62,0,0,0,226.851,555.649Zm-.261,2.128a1.282,1.282,0,0,1-.932.394,1.268,1.268,0,0,1-.931-.394,1.325,1.325,0,0,1,0-1.872,1.262,1.262,0,0,1,.931-.39,1.276,1.276,0,0,1,.932.39,1.331,1.331,0,0,1,0,1.872Zm-15.381,10.087-3.944-11.215H200.2l6.86,16.947h8.068l6.91-16.947H215.1Zm-58.174-8.227-.049-.016a7.221,7.221,0,0,0,1.1-.544,5.927,5.927,0,0,0-3.238-10.842h.371l-14.406-.009V573.6h11.822c.223,0,.442-.006.662-.009h2.83l.37-.009c3.852-.136,6.376-3.3,6.376-7.181C158.873,563.019,156.174,560.41,153.035,559.637Zm-9.33-6.736H147.1a4.464,4.464,0,0,1,1.147.176,2.674,2.674,0,0,1,1.551,1.728,2.5,2.5,0,0,1,.071.592,3.615,3.615,0,0,1-.223,1.293,2.636,2.636,0,0,1-.755.953,2.893,2.893,0,0,1-.367.206,3.62,3.62,0,0,1-1.353.359c-.44.023-.649.034-1.738.034h-1.727Zm6.488,15.355a4.026,4.026,0,0,1-2.166.647h-4.322v-6.3h3.657c.263,0,.481.007.608.007a5.016,5.016,0,0,1,1.595.246c.1.036.2.076.3.116a3.069,3.069,0,0,1,.326,5.281Zm23.229-11.562-5.958,7.613v-16.09h-6.7V573.6h6.7l2.882-3.661,2.678,3.661h7.633l-6.437-8.646,6.456-8.256Zm24.561.663c-1.365-1-4.685-1.492-7.671-1.492a23.71,23.71,0,0,0-3.617.317,20.645,20.645,0,0,0-4.23,1.113l1.917,3.882a10.185,10.185,0,0,1,4.133-1.414,9.689,9.689,0,0,1,2.673-.042,3.258,3.258,0,0,1,1.533.564,2.083,2.083,0,0,1,.819,1.837v.129a30.61,30.61,0,0,0-7.515.853c-2.271.667-4.64,2.685-4.64,5.357a5.605,5.605,0,0,0,5.63,5.443c.082,0,.825.012.825.012a11.843,11.843,0,0,0,5.67-1.8l1.12,1.5h5.4v-11.8A5.089,5.089,0,0,0,197.983,557.357Zm-4.474,11.618a4.923,4.923,0,0,1-3.159,1.476,2.149,2.149,0,0,1-.3-.019c-.049,0-.09-.013-.136-.016-.026,0-.059-.011-.084-.015a2.268,2.268,0,0,1-.011-4.448c.018-.007.036-.01.059-.018.92-.206,3.633-.459,3.633-.459Z" transform="translate(-136.813 -548.217)" fill="#fff"/></g></svg>